<svg width="14" height="14" viewBox="0 0 14 14" fill="none" xmlns="http://www.w3.org/2000/svg">
<g clip-path="url(#clip0_279_7978)">
<path d="M7 0.875C5.78859 0.875 4.60439 1.23423 3.59713 1.90725C2.58988 2.58027 1.80483 3.53687 1.34124 4.65606C0.877654 5.77526 0.756358 7.00679 0.992693 8.19493C1.22903 9.38306 1.81238 10.4744 2.66897 11.331C3.52557 12.1876 4.61694 12.771 5.80507 13.0073C6.99321 13.2436 8.22474 13.1223 9.34394 12.6588C10.4631 12.1952 11.4197 11.4101 12.0928 10.4029C12.7658 9.39562 13.125 8.21141 13.125 7C13.125 5.37555 12.4797 3.81763 11.331 2.66897C10.1824 1.52031 8.62445 0.875 7 0.875ZM7 12.25C5.96165 12.25 4.94662 11.9421 4.08326 11.3652C3.2199 10.7883 2.547 9.9684 2.14964 9.00909C1.75228 8.04978 1.64831 6.99418 1.85088 5.97578C2.05345 4.95738 2.55347 4.02191 3.28769 3.28769C4.02192 2.55346 4.95738 2.05345 5.97578 1.85088C6.99418 1.6483 8.04978 1.75227 9.00909 2.14963C9.9684 2.54699 10.7883 3.2199 11.3652 4.08326C11.9421 4.94661 12.25 5.96165 12.25 7C12.25 8.39239 11.6969 9.72774 10.7123 10.7123C9.72775 11.6969 8.39239 12.25 7 12.25Z" fill="#626D7D"/>
<path d="M6.5625 3.5H7.4375V8.3125H6.5625V3.5ZM7 9.625C6.87021 9.625 6.74333 9.66349 6.63541 9.7356C6.52749 9.80771 6.44337 9.9102 6.3937 10.0301C6.34403 10.15 6.33104 10.282 6.35636 10.4093C6.38168 10.5366 6.44418 10.6535 6.53596 10.7453C6.62774 10.8371 6.74467 10.8996 6.87197 10.9249C6.99927 10.9502 7.13122 10.9372 7.25114 10.8875C7.37105 10.8379 7.47354 10.7538 7.54565 10.6458C7.61776 10.5379 7.65625 10.411 7.65625 10.2812C7.65625 10.1072 7.58711 9.94028 7.46404 9.81721C7.34097 9.69414 7.17405 9.625 7 9.625Z" fill="#626D7D"/>
</g>
<defs>
<clipPath id="clip0_279_7978">
<rect width="14" height="14" fill="white"/>
</clipPath>
</defs>
</svg>
