<svg width="16" height="16" viewBox="0 0 16 16" fill="none" xmlns="http://www.w3.org/2000/svg">
<path d="M7.5 5.5H8.5V10H7.5V5.5ZM6.5 1H9.5V2H6.5V1Z" fill="#9191A7"/>
<path d="M14.0007 4.49957L13.2907 3.79457L12.1657 4.91957C11.2448 3.85608 9.94957 3.18829 8.54912 3.05492C7.14867 2.92156 5.75067 3.33289 4.6456 4.20344C3.54052 5.07399 2.81334 6.33684 2.61513 7.7296C2.41692 9.12235 2.76293 10.5379 3.58127 11.6822C4.3996 12.8265 5.62734 13.6115 7.0094 13.8741C8.39146 14.1368 9.82156 13.8568 11.0026 13.0925C12.1836 12.3281 13.0247 11.1381 13.3512 9.76973C13.6777 8.40135 13.4644 6.95979 12.7557 5.74457L14.0007 4.49957ZM8.0007 12.9996C7.11069 12.9996 6.24066 12.7356 5.50064 12.2412C4.76061 11.7467 4.18384 11.0439 3.84324 10.2216C3.50265 9.39938 3.41354 8.49458 3.58717 7.62166C3.7608 6.74875 4.18939 5.94692 4.81872 5.31759C5.44806 4.68825 6.24988 4.25967 7.1228 4.08603C7.99571 3.9124 8.90051 4.00152 9.72278 4.34211C10.545 4.68271 11.2478 5.25948 11.7423 5.9995C12.2368 6.73952 12.5007 7.60955 12.5007 8.49957C12.5007 9.69304 12.0266 10.8376 11.1827 11.6815C10.3388 12.5255 9.19418 12.9996 8.0007 12.9996Z" fill="#9191A7"/>
</svg>
