<svg width="14" height="14" viewBox="0 0 14 14" fill="none" xmlns="http://www.w3.org/2000/svg">
<path d="M5.25 4.375H2.96625C3.53209 3.50539 4.36381 2.84192 5.33742 2.4835C6.31104 2.12508 7.37441 2.09089 8.36904 2.38603C9.36367 2.68117 10.2363 3.28984 10.8568 4.1213C11.4774 4.95277 11.8126 5.9625 11.8125 7H12.6875C12.6887 5.8299 12.329 4.6879 11.6574 3.72973C10.9858 2.77156 10.035 2.04384 8.93471 1.64581C7.83439 1.24779 6.63808 1.19882 5.50891 1.50558C4.37974 1.81235 3.37266 2.45992 2.625 3.36V1.75H1.75V5.25H5.25V4.375ZM8.75 9.625H11.0338C10.4679 10.4946 9.6362 11.1581 8.66258 11.5165C7.68897 11.8749 6.62559 11.9091 5.63096 11.614C4.63634 11.3188 3.76372 10.7102 3.14319 9.87869C2.52265 9.04723 2.18744 8.03749 2.1875 7H1.3125C1.3113 8.1701 1.67102 9.31209 2.34261 10.2703C3.0142 11.2284 3.96498 11.9562 5.0653 12.3542C6.16562 12.7522 7.36193 12.8012 8.4911 12.4944C9.62027 12.1876 10.6273 11.5401 11.375 10.64V12.25H12.25V8.75H8.75V9.625Z" fill="#FB9B20"/>
</svg>
