<svg width="20" height="20" viewBox="0 0 20 20" fill="none" xmlns="http://www.w3.org/2000/svg">
<path d="M11.875 8.125H15.625V9.375H11.875V8.125ZM8.125 13.125H6.875V11.875H5.625V13.125H4.375V14.375H5.625V15.625H6.875V14.375H8.125V13.125ZM4.375 5.625H8.125V6.875H4.375V5.625ZM11.875 10.625H15.625V11.875H11.875V10.625Z" fill="#FED519"/>
<path d="M16.875 1.875H3.125C2.79358 1.87533 2.47583 2.00713 2.24148 2.24148C2.00713 2.47583 1.87533 2.79358 1.875 3.125V16.875C1.87533 17.2064 2.00713 17.5242 2.24148 17.7585C2.47583 17.9929 2.79358 18.1247 3.125 18.125H16.875C17.2064 18.1247 17.5242 17.9929 17.7585 17.7585C17.9929 17.5242 18.1247 17.2064 18.125 16.875V3.125C18.1247 2.79358 17.9929 2.47583 17.7585 2.24148C17.5242 2.00713 17.2064 1.87533 16.875 1.875ZM9.375 3.125V9.375H3.125V3.125H9.375ZM3.125 10.625H9.375V16.875H3.125V10.625ZM10.625 16.875V3.125H16.875V16.875H10.625Z" fill="#FED519"/>
</svg>
