<svg width="20" height="20" viewBox="0 0 20 20" fill="none" xmlns="http://www.w3.org/2000/svg">
<path d="M10.0008 4.075L11.7258 7.5625L12.0133 8.1875L12.6383 8.28125L16.4883 8.8375L13.7508 11.525L13.282 11.9812L13.3945 12.6062L14.0508 16.4375L10.607 14.6313L10.0008 14.375L9.41953 14.6812L5.97578 16.4625L6.60078 12.6312L6.71328 12.0062L6.25078 11.525L3.48828 8.80625L7.33828 8.25L7.96328 8.15625L8.25078 7.53125L10.0008 4.075ZM10.0008 1.25L7.15703 7.0125L0.800781 7.93125L5.40078 12.4188L4.31328 18.75L10.0008 15.7625L15.6883 18.75L14.6008 12.4188L19.2008 7.9375L12.8445 7.0125L10.0008 1.25Z" fill="#FB9B20"/>
</svg>
