<svg width="18" height="19" viewBox="0 0 18 19" fill="none" xmlns="http://www.w3.org/2000/svg">
<g clip-path="url(#clip0_145_4966)">
<mask id="mask0_145_4966" style="mask-type:alpha" maskUnits="userSpaceOnUse" x="0" y="0" width="18" height="19">
<rect y="0.5" width="18" height="18" fill="#C4C4C4"/>
</mask>
<g mask="url(#mask0_145_4966)">
<path d="M10.4625 2.0075L7.3515 2H7.35C4.0695 2 1.5 4.57025 1.5 7.85151C1.5 10.925 3.8895 13.256 7.09875 13.379V16.25C7.09875 16.331 7.13175 16.4645 7.18875 16.5523C7.29525 16.721 7.47674 16.8125 7.66274 16.8125C7.76624 16.8125 7.87049 16.784 7.96424 16.724C8.16224 16.598 12.819 13.619 14.0302 12.5945C15.4567 11.387 16.3102 9.61701 16.3125 7.86051V7.84776C16.308 4.5725 13.74 2.0075 10.4625 2.00675V2.0075ZM13.3027 11.7365C12.4522 12.4565 9.65624 14.2903 8.22374 15.2188V12.8285C8.22374 12.518 7.97249 12.266 7.66124 12.266H7.36425C4.61925 12.266 2.62575 10.409 2.62575 7.85151C2.62575 5.201 4.70175 3.125 7.35075 3.125L10.461 3.1325H10.4625C13.1115 3.1325 15.1875 5.207 15.189 7.85451C15.1867 9.28701 14.4825 10.7375 13.3035 11.7365H13.3027Z" fill="#FED519"/>
</g>
</g>
<defs>
<clipPath id="clip0_145_4966">
<rect width="18" height="18" fill="white" transform="translate(0 0.5)"/>
</clipPath>
</defs>
</svg>
