<svg width="221" height="32" viewBox="0 0 221 32" fill="none" xmlns="http://www.w3.org/2000/svg">
<path d="M17.6799 24.1961C17.6799 25.2322 17.4798 26.2043 17.0796 27.1126C16.6938 28.021 16.1578 28.8157 15.4718 29.497C14.7858 30.1782 13.9854 30.7175 13.0707 31.1149C12.156 31.4981 11.177 31.6897 10.1337 31.6897H7.947C6.90367 31.6897 5.91752 31.4981 4.98853 31.1149C4.07384 30.7175 3.27348 30.1782 2.58746 29.497C1.90144 28.8157 1.35834 28.021 0.958163 27.1126C0.572277 26.2043 0.379333 25.2322 0.379333 24.1961V7.80393C0.379333 6.76789 0.572277 5.79571 0.958163 4.8874C1.35834 3.97909 1.90144 3.18432 2.58746 2.50308C3.27348 1.82185 4.07384 1.28964 4.98853 0.906443C5.91752 0.509057 6.90367 0.310364 7.947 0.310364H10.1337C11.177 0.310364 12.156 0.509057 13.0707 0.906443C13.9854 1.28964 14.7858 1.82185 15.4718 2.50308C16.1578 3.18432 16.6938 3.97909 17.0796 4.8874C17.4798 5.79571 17.6799 6.76789 17.6799 7.80393V9.03867L14.9144 9.46444V7.80393C14.9144 7.1227 14.7858 6.49114 14.5285 5.90925C14.2712 5.31317 13.9211 4.79515 13.478 4.35519C13.035 3.91522 12.5133 3.56751 11.9131 3.31205C11.3271 3.05659 10.6911 2.92885 10.0051 2.92885H8.07562C7.3896 2.92885 6.74646 3.05659 6.14619 3.31205C5.56022 3.56751 5.03856 3.91522 4.58121 4.35519C4.13815 4.79515 3.788 5.31317 3.53074 5.90925C3.27348 6.49114 3.14485 7.1227 3.14485 7.80393V24.1961C3.14485 24.8773 3.27348 25.516 3.53074 26.1121C3.788 26.694 4.13815 27.212 4.58121 27.6661C5.03856 28.1061 5.56022 28.4538 6.14619 28.7093C6.74646 28.9647 7.3896 29.0925 8.07562 29.0925H10.0051C10.6911 29.0925 11.3271 28.9647 11.9131 28.7093C12.5133 28.4538 13.035 28.1061 13.478 27.6661C13.9211 27.212 14.2712 26.694 14.5285 26.1121C14.7858 25.516 14.9144 24.8773 14.9144 24.1961V22.5356L17.6799 22.9827V24.1961Z" fill="white"/>
<path d="M36.7599 31.2639L35.3021 29.0499C34.7018 29.8589 33.9515 30.5046 33.0511 30.9872C32.1507 31.4555 31.1645 31.6897 30.0926 31.6897H29.428C28.5419 31.6897 27.7058 31.5265 26.9197 31.2C26.1337 30.8594 25.4477 30.3982 24.8617 29.8163C24.2757 29.2344 23.8112 28.5532 23.4682 27.7726C23.1395 26.992 22.9751 26.1618 22.9751 25.2818V9.46444H25.612V25.4308C25.612 25.956 25.7121 26.4527 25.9122 26.921C26.1122 27.3752 26.3838 27.7726 26.7268 28.1132C27.0698 28.4538 27.47 28.7235 27.9273 28.9222C28.399 29.1209 28.8992 29.2202 29.428 29.2202H31.1859C31.7147 29.2202 32.2078 29.1209 32.6652 28.9222C33.1368 28.7235 33.5441 28.4538 33.8871 28.1132C34.2302 27.7726 34.5017 27.3752 34.7018 26.921C34.9019 26.4527 35.0019 25.956 35.0019 25.4308V9.46444H37.6388V31.2639H36.7599Z" fill="white"/>
<path d="M49.3655 11.9552C48.8367 11.9552 48.3364 12.0545 47.8648 12.2532C47.4075 12.4519 47.0073 12.7216 46.6643 13.0622C46.3213 13.4028 46.0497 13.8073 45.8496 14.2756C45.6495 14.7298 45.5495 15.2194 45.5495 15.7446V31.2639H42.9126V9.46444H43.7916L45.2279 11.6784C45.8282 10.8695 46.5785 10.2308 47.4789 9.76248C48.3936 9.27994 49.3869 9.03867 50.4588 9.03867H52.0024V11.9552H49.3655Z" fill="white"/>
<path d="M62.3999 31.2639H61.0921L53.3101 9.46444H55.947L61.671 25.9843L61.7567 27.1126L61.8425 25.9843L67.545 9.46444H70.1819L62.3999 31.2639Z" fill="white"/>
<path d="M87.9327 25.2818C87.9327 26.1618 87.7612 26.992 87.4182 27.7726C87.0895 28.5532 86.6321 29.2344 86.0461 29.8163C85.4602 30.3982 84.7741 30.8594 83.9881 31.2C83.202 31.5265 82.3659 31.6897 81.4798 31.6897H79.7219C78.8358 31.6897 77.9997 31.5265 77.2136 31.2C76.4276 30.8594 75.7415 30.3982 75.1556 29.8163C74.5696 29.2344 74.1051 28.5532 73.7621 27.7726C73.4334 26.992 73.269 26.1618 73.269 25.2818V15.4465C73.269 14.5666 73.4334 13.7363 73.7621 12.9558C74.1051 12.1752 74.5696 11.4939 75.1556 10.9121C75.7415 10.3302 76.4276 9.87602 77.2136 9.54959C77.9997 9.20897 78.8358 9.03867 79.7219 9.03867H81.4798C82.3659 9.03867 83.202 9.20897 83.9881 9.54959C84.7741 9.87602 85.4602 10.3302 86.0461 10.9121C86.6321 11.4939 87.0895 12.1752 87.4182 12.9558C87.7612 13.7363 87.9327 14.5666 87.9327 15.4465V20.5771H75.9059V25.4308C75.9059 25.956 76.0059 26.4527 76.206 26.921C76.4061 27.3752 76.6777 27.7726 77.0207 28.1132C77.3637 28.4538 77.7639 28.7235 78.2212 28.9222C78.6928 29.1209 79.1931 29.2202 79.7219 29.2202H81.4798C82.0086 29.2202 82.5017 29.1209 82.959 28.9222C83.4307 28.7235 83.838 28.4538 84.181 28.1132C84.524 27.7726 84.7956 27.3752 84.9957 26.921C85.1958 26.4527 85.2958 25.956 85.2958 25.4308V23.9832L87.9327 24.409V25.2818ZM85.2958 15.2975C85.2958 14.7724 85.1958 14.2827 84.9957 13.8286C84.7956 13.3602 84.524 12.9558 84.181 12.6151C83.838 12.2745 83.4307 12.0049 82.959 11.8062C82.5017 11.6075 82.0086 11.5081 81.4798 11.5081H79.7219C79.1931 11.5081 78.6928 11.6075 78.2212 11.8062C77.7639 12.0049 77.3637 12.2745 77.0207 12.6151C76.6777 12.9558 76.4061 13.3602 76.206 13.8286C76.0059 14.2827 75.9059 14.7724 75.9059 15.2975V18.5334H85.2958V15.2975Z" fill="white"/>
<path d="M110.871 3.22689C110.428 3.22689 110.014 3.31205 109.628 3.48236C109.256 3.63847 108.928 3.85845 108.642 4.1423C108.356 4.42615 108.127 4.75967 107.956 5.14286C107.799 5.52606 107.72 5.93763 107.72 6.3776V9.46444H112.844V11.9552H107.72V31.2639H105.083V11.9552H101.117V9.46444H105.083V6.50533C105.083 5.71056 105.233 4.96546 105.533 4.27003C105.834 3.56041 106.248 2.94305 106.777 2.41793C107.306 1.89281 107.92 1.48123 108.62 1.18319C109.321 0.885154 110.071 0.736135 110.871 0.736135H113.294V3.22689H110.871Z" fill="white"/>
<path d="M116.595 4.22746V0.736135H119.661V4.22746H116.595ZM116.81 31.2639V9.46444H119.447V31.2639H116.81Z" fill="white"/>
<path d="M137.648 31.2639V15.2975C137.648 14.7724 137.548 14.2827 137.348 13.8286C137.148 13.3602 136.876 12.9558 136.533 12.6151C136.19 12.2745 135.783 12.0049 135.311 11.8062C134.854 11.6075 134.361 11.5081 133.832 11.5081H132.074C131.545 11.5081 131.045 11.6075 130.573 11.8062C130.116 12.0049 129.716 12.2745 129.373 12.6151C129.03 12.9558 128.758 13.3602 128.558 13.8286C128.358 14.2827 128.258 14.7724 128.258 15.2975V31.2639H125.621V9.46444H126.5L127.936 11.6784C128.537 10.8695 129.287 10.2308 130.187 9.76248C131.102 9.27994 132.095 9.03867 133.167 9.03867H133.832C134.718 9.03867 135.554 9.20897 136.34 9.54959C137.126 9.87602 137.812 10.3302 138.398 10.9121C138.984 11.4939 139.441 12.1752 139.77 12.9558C140.113 13.7363 140.285 14.5666 140.285 15.4465V31.2639H137.648Z" fill="white"/>
<path d="M159.343 31.2639L157.885 29.0925C157.285 29.8731 156.535 30.5046 155.634 30.9872C154.734 31.4555 153.748 31.6897 152.676 31.6897H152.011C151.125 31.6897 150.289 31.5265 149.503 31.2C148.717 30.8594 148.031 30.3982 147.445 29.8163C146.859 29.2344 146.394 28.5532 146.051 27.7726C145.723 26.992 145.558 26.1618 145.558 25.2818V25.0689C145.558 24.189 145.723 23.3588 146.051 22.5782C146.394 21.7976 146.859 21.1164 147.445 20.5345C148.031 19.9526 148.717 19.4984 149.503 19.172C150.289 18.8314 151.125 18.6611 152.011 18.6611H157.585V15.2975C157.585 14.7724 157.485 14.2827 157.285 13.8286C157.085 13.3602 156.813 12.9558 156.47 12.6151C156.127 12.2745 155.72 12.0049 155.248 11.8062C154.791 11.6075 154.298 11.5081 153.769 11.5081H152.226C151.697 11.5081 151.197 11.6075 150.725 11.8062C150.268 12.0049 149.867 12.2745 149.524 12.6151C149.181 12.9558 148.91 13.3602 148.71 13.8286C148.51 14.2827 148.41 14.7724 148.41 15.2975V16.0852L145.773 15.6594V15.4465C145.773 14.5666 145.937 13.7363 146.266 12.9558C146.609 12.1752 147.073 11.4939 147.659 10.9121C148.245 10.3302 148.931 9.87602 149.717 9.54959C150.503 9.20897 151.34 9.03867 152.226 9.03867H153.769C154.655 9.03867 155.491 9.20897 156.277 9.54959C157.064 9.87602 157.75 10.3302 158.336 10.9121C158.922 11.4939 159.379 12.1752 159.708 12.9558C160.051 13.7363 160.222 14.5666 160.222 15.4465V31.2639H159.343ZM157.585 20.7048H152.011C151.482 20.7048 150.982 20.8041 150.511 21.0028C150.053 21.2015 149.653 21.4783 149.31 21.8331C148.967 22.1737 148.696 22.5782 148.495 23.0465C148.295 23.5007 148.195 23.9903 148.195 24.5154V25.4308C148.195 25.956 148.295 26.4527 148.495 26.921C148.696 27.3752 148.967 27.7726 149.31 28.1132C149.653 28.4538 150.053 28.7235 150.511 28.9222C150.982 29.1209 151.482 29.2202 152.011 29.2202H153.769C154.298 29.2202 154.791 29.1209 155.248 28.9222C155.72 28.7235 156.127 28.4538 156.47 28.1132C156.813 27.7726 157.085 27.3752 157.285 26.921C157.485 26.4527 157.585 25.956 157.585 25.4308V20.7048Z" fill="white"/>
<path d="M177.523 31.2639V15.2975C177.523 14.7724 177.423 14.2827 177.223 13.8286C177.022 13.3602 176.751 12.9558 176.408 12.6151C176.065 12.2745 175.658 12.0049 175.186 11.8062C174.729 11.6075 174.235 11.5081 173.707 11.5081H171.949C171.42 11.5081 170.92 11.6075 170.448 11.8062C169.991 12.0049 169.591 12.2745 169.248 12.6151C168.905 12.9558 168.633 13.3602 168.433 13.8286C168.233 14.2827 168.133 14.7724 168.133 15.2975V31.2639H165.496V9.46444H166.375L167.811 11.6784C168.411 10.8695 169.162 10.2308 170.062 9.76248C170.977 9.27994 171.97 9.03867 173.042 9.03867H173.707C174.593 9.03867 175.429 9.20897 176.215 9.54959C177.001 9.87602 177.687 10.3302 178.273 10.9121C178.859 11.4939 179.316 12.1752 179.645 12.9558C179.988 13.7363 180.16 14.5666 180.16 15.4465V31.2639H177.523Z" fill="white"/>
<path d="M200.097 25.2818C200.097 26.1618 199.926 26.992 199.583 27.7726C199.254 28.5532 198.796 29.2344 198.21 29.8163C197.624 30.3982 196.938 30.8594 196.152 31.2C195.366 31.5265 194.53 31.6897 193.644 31.6897H191.886C191 31.6897 190.164 31.5265 189.378 31.2C188.592 30.8594 187.906 30.3982 187.32 29.8163C186.734 29.2344 186.269 28.5532 185.926 27.7726C185.598 26.992 185.433 26.1618 185.433 25.2818V15.4465C185.433 14.5666 185.598 13.7363 185.926 12.9558C186.269 12.1752 186.734 11.4939 187.32 10.9121C187.906 10.3302 188.592 9.87602 189.378 9.54959C190.164 9.20897 191 9.03867 191.886 9.03867H193.644C194.53 9.03867 195.366 9.20897 196.152 9.54959C196.938 9.87602 197.624 10.3302 198.21 10.9121C198.796 11.4939 199.254 12.1752 199.583 12.9558C199.926 13.7363 200.097 14.5666 200.097 15.4465V16.3193L197.46 16.7451V15.2975C197.46 14.7724 197.36 14.2827 197.16 13.8286C196.96 13.3602 196.688 12.9558 196.345 12.6151C196.002 12.2745 195.595 12.0049 195.123 11.8062C194.666 11.6075 194.173 11.5081 193.644 11.5081H191.886C191.357 11.5081 190.857 11.6075 190.386 11.8062C189.928 12.0049 189.528 12.2745 189.185 12.6151C188.842 12.9558 188.57 13.3602 188.37 13.8286C188.17 14.2827 188.07 14.7724 188.07 15.2975V25.4308C188.07 25.956 188.17 26.4527 188.37 26.921C188.57 27.3752 188.842 27.7726 189.185 28.1132C189.528 28.4538 189.928 28.7235 190.386 28.9222C190.857 29.1209 191.357 29.2202 191.886 29.2202H193.644C194.173 29.2202 194.666 29.1209 195.123 28.9222C195.595 28.7235 196.002 28.4538 196.345 28.1132C196.688 27.7726 196.96 27.3752 197.16 26.921C197.36 26.4527 197.46 25.956 197.46 25.4308V23.9832L200.097 24.409V25.2818Z" fill="white"/>
<path d="M220.035 25.2818C220.035 26.1618 219.863 26.992 219.52 27.7726C219.191 28.5532 218.734 29.2344 218.148 29.8163C217.562 30.3982 216.876 30.8594 216.09 31.2C215.304 31.5265 214.468 31.6897 213.582 31.6897H211.824C210.938 31.6897 210.101 31.5265 209.315 31.2C208.529 30.8594 207.843 30.3982 207.257 29.8163C206.671 29.2344 206.207 28.5532 205.864 27.7726C205.535 26.992 205.371 26.1618 205.371 25.2818V15.4465C205.371 14.5666 205.535 13.7363 205.864 12.9558C206.207 12.1752 206.671 11.4939 207.257 10.9121C207.843 10.3302 208.529 9.87602 209.315 9.54959C210.101 9.20897 210.938 9.03867 211.824 9.03867H213.582C214.468 9.03867 215.304 9.20897 216.09 9.54959C216.876 9.87602 217.562 10.3302 218.148 10.9121C218.734 11.4939 219.191 12.1752 219.52 12.9558C219.863 13.7363 220.035 14.5666 220.035 15.4465V20.5771H208.008V25.4308C208.008 25.956 208.108 26.4527 208.308 26.921C208.508 27.3752 208.779 27.7726 209.122 28.1132C209.465 28.4538 209.866 28.7235 210.323 28.9222C210.795 29.1209 211.295 29.2202 211.824 29.2202H213.582C214.11 29.2202 214.604 29.1209 215.061 28.9222C215.532 28.7235 215.94 28.4538 216.283 28.1132C216.626 27.7726 216.897 27.3752 217.097 26.921C217.298 26.4527 217.398 25.956 217.398 25.4308V23.9832L220.035 24.409V25.2818ZM217.398 15.2975C217.398 14.7724 217.298 14.2827 217.097 13.8286C216.897 13.3602 216.626 12.9558 216.283 12.6151C215.94 12.2745 215.532 12.0049 215.061 11.8062C214.604 11.6075 214.11 11.5081 213.582 11.5081H211.824C211.295 11.5081 210.795 11.6075 210.323 11.8062C209.866 12.0049 209.465 12.2745 209.122 12.6151C208.779 12.9558 208.508 13.3602 208.308 13.8286C208.108 14.2827 208.008 14.7724 208.008 15.2975V18.5334H217.398V15.2975Z" fill="white"/>
</svg>
