<svg width="20" height="20" viewBox="0 0 20 20" fill="none" xmlns="http://www.w3.org/2000/svg">
<path d="M10.0625 8.5625C9.6875 8.46875 9.3125 8.28125 9.03125 8C8.75 7.90625 8.65625 7.625 8.65625 7.4375C8.65625 7.25 8.75 6.96875 8.9375 6.875C9.21875 6.6875 9.5 6.5 9.78125 6.59375C10.3438 6.59375 10.8125 6.875 11.0938 7.25L11.9375 6.125C11.6562 5.84375 11.375 5.65625 11.0938 5.46875C10.8125 5.28125 10.4375 5.1875 10.0625 5.1875V3.875H8.9375V5.1875C8.46875 5.28125 8 5.5625 7.625 5.9375C7.25 6.40625 6.96875 6.96875 7.0625 7.53125C7.0625 8.09375 7.25 8.65625 7.625 9.03125C8.09375 9.5 8.75 9.78125 9.3125 10.0625C9.59375 10.1562 9.96875 10.3438 10.25 10.5312C10.4375 10.7188 10.5312 11 10.5312 11.2812C10.5312 11.5625 10.4375 11.8438 10.25 12.125C9.96875 12.4062 9.59375 12.5 9.3125 12.5C8.9375 12.5 8.46875 12.4062 8.1875 12.125C7.90625 11.9375 7.625 11.6562 7.4375 11.375L6.5 12.4062C6.78125 12.7812 7.0625 13.0625 7.4375 13.3438C7.90625 13.625 8.46875 13.9062 9.03125 13.9062V15.125H10.0625V13.7188C10.625 13.625 11.0938 13.3438 11.4688 12.9688C11.9375 12.5 12.2188 11.75 12.2188 11.0938C12.2188 10.5312 12.0312 9.875 11.5625 9.5C11.0938 9.03125 10.625 8.75 10.0625 8.5625ZM9.5 2C5.375 2 2 5.375 2 9.5C2 13.625 5.375 17 9.5 17C13.625 17 17 13.625 17 9.5C17 5.375 13.625 2 9.5 2ZM9.5 15.9688C5.9375 15.9688 3.03125 13.0625 3.03125 9.5C3.03125 5.9375 5.9375 3.03125 9.5 3.03125C13.0625 3.03125 15.9688 5.9375 15.9688 9.5C15.9688 13.0625 13.0625 15.9688 9.5 15.9688Z" fill="white"/>
</svg>
