<svg width="125" height="34" viewBox="0 0 125 34" fill="none" xmlns="http://www.w3.org/2000/svg">
<path d="M0 33.5455V0.454545H8.65091C12.4708 0.454545 15.5117 1.68182 17.7737 4.13636C20.0506 6.59091 21.2116 9.95455 21.2565 14.2273V19.5909C21.2565 23.9394 20.118 27.3561 17.8411 29.8409C15.5791 32.3106 12.4558 33.5455 8.47115 33.5455H0ZM6.60615 6.02273V28H8.5835C10.7855 28 12.336 27.4167 13.2348 26.25C14.1336 25.0682 14.6054 23.0379 14.6504 20.1591V14.4091C14.6504 11.3182 14.2234 9.16667 13.3696 7.95455C12.5157 6.72727 11.0627 6.08333 9.01043 6.02273H6.60615Z" fill="white"/>
<path d="M49.0518 19.9773C49.0518 24.4167 48.0107 27.8636 45.9285 30.3182C43.8612 32.7727 40.9851 34 37.3 34C33.6299 34 30.7463 32.7879 28.6491 30.3636C26.5519 27.9242 25.4883 24.5152 25.4584 20.1364V14.4773C25.4584 9.93182 26.4995 6.38636 28.5817 3.84091C30.6639 1.2803 33.555 0 37.2551 0C40.8952 0 43.7639 1.25758 45.861 3.77273C47.9582 6.27273 49.0218 9.78788 49.0518 14.3182V19.9773ZM42.4232 14.4318C42.4232 11.447 42.0037 9.22727 41.1648 7.77273C40.326 6.31818 39.0227 5.59091 37.2551 5.59091C35.5024 5.59091 34.2067 6.29545 33.3678 7.70455C32.5289 9.09848 32.0945 11.2273 32.0645 14.0909V19.9773C32.0645 22.8712 32.4915 25.0076 33.3453 26.3864C34.1992 27.75 35.5174 28.4318 37.3 28.4318C39.0227 28.4318 40.3035 27.7652 41.1424 26.4318C41.9812 25.0833 42.4082 23 42.4232 20.1818V14.4318Z" fill="white"/>
<path d="M60.3991 21.9091V33.5455H53.7929V0.454545H64.938C68.1736 0.454545 70.7502 1.4697 72.6676 3.5C74.6 5.5303 75.5662 8.16667 75.5662 11.4091C75.5662 14.6515 74.615 17.2121 72.7126 19.0909C70.8101 20.9697 68.1736 21.9091 64.8032 21.9091H60.3991ZM60.3991 16.3409H64.938C66.1963 16.3409 67.17 15.9242 67.8591 15.0909C68.5481 14.2576 68.8927 13.0455 68.8927 11.4545C68.8927 9.80303 68.5407 8.49242 67.8366 7.52273C67.1325 6.53788 66.1888 6.03788 65.0054 6.02273H60.3991V16.3409Z" fill="white"/>
<path d="M96.8902 19.2273H86.599V28H98.7776V33.5455H79.9928V0.454545H98.7327V6.02273H86.599V13.8409H96.8902V19.2273Z" fill="white"/>
<path d="M112.844 11.8182L117.248 0.454545H124.82L117.136 16.8636L125 33.5455H117.338L112.844 21.9773L108.372 33.5455H100.71L108.575 16.8636L100.867 0.454545H108.44L112.844 11.8182Z" fill="white"/>
</svg>
