<svg width="29" height="24" viewBox="0 0 29 24" fill="none" xmlns="http://www.w3.org/2000/svg">
<g clip-path="url(#clip0_134_7224)">
<path d="M10.9091 16.3636C10.9091 16.8182 10.8381 17.2841 10.696 17.7614C10.554 18.2386 10.3097 18.6705 9.96307 19.0568C9.61648 19.4432 9.20455 19.6364 8.72727 19.6364C8.25 19.6364 7.83807 19.4432 7.49148 19.0568C7.14489 18.6705 6.90057 18.2386 6.75852 17.7614C6.61648 17.2841 6.54545 16.8182 6.54545 16.3636C6.54545 15.9091 6.61648 15.4432 6.75852 14.9659C6.90057 14.4886 7.14489 14.0568 7.49148 13.6705C7.83807 13.2841 8.25 13.0909 8.72727 13.0909C9.20455 13.0909 9.61648 13.2841 9.96307 13.6705C10.3097 14.0568 10.554 14.4886 10.696 14.9659C10.8381 15.4432 10.9091 15.9091 10.9091 16.3636ZM21.8182 16.3636C21.8182 16.8182 21.7472 17.2841 21.6051 17.7614C21.4631 18.2386 21.2188 18.6705 20.8722 19.0568C20.5256 19.4432 20.1136 19.6364 19.6364 19.6364C19.1591 19.6364 18.7472 19.4432 18.4006 19.0568C18.054 18.6705 17.8097 18.2386 17.6676 17.7614C17.5256 17.2841 17.4545 16.8182 17.4545 16.3636C17.4545 15.9091 17.5256 15.4432 17.6676 14.9659C17.8097 14.4886 18.054 14.0568 18.4006 13.6705C18.7472 13.2841 19.1591 13.0909 19.6364 13.0909C20.1136 13.0909 20.5256 13.2841 20.8722 13.6705C21.2188 14.0568 21.4631 14.4886 21.6051 14.9659C21.7472 15.4432 21.8182 15.9091 21.8182 16.3636ZM24.5455 16.3636C24.5455 15 24.1534 13.8409 23.3693 12.8864C22.5852 11.9318 21.5227 11.4545 20.1818 11.4545C19.7159 11.4545 18.608 11.5739 16.858 11.8125C16.0511 11.9375 15.1591 12 14.1818 12C13.2045 12 12.3125 11.9375 11.5057 11.8125C9.77841 11.5739 8.67045 11.4545 8.18182 11.4545C6.84091 11.4545 5.77841 11.9318 4.99432 12.8864C4.21023 13.8409 3.81818 15 3.81818 16.3636C3.81818 17.3636 4 18.2358 4.36364 18.9801C4.72727 19.7244 5.1875 20.3097 5.74432 20.7358C6.30114 21.1619 6.99432 21.5028 7.82386 21.7585C8.65341 22.0142 9.44886 22.1818 10.2102 22.2614C10.9716 22.3409 11.8182 22.3807 12.75 22.3807H15.6136C16.5455 22.3807 17.392 22.3409 18.1534 22.2614C18.9148 22.1818 19.7102 22.0142 20.5398 21.7585C21.3693 21.5028 22.0625 21.1619 22.6193 20.7358C23.1761 20.3097 23.6364 19.7244 24 18.9801C24.3636 18.2358 24.5455 17.3636 24.5455 16.3636ZM28.3636 13.3636C28.3636 15.7159 28.017 17.5966 27.3239 19.0057C26.892 19.8807 26.2926 20.6364 25.5256 21.2727C24.7585 21.9091 23.9574 22.3977 23.1222 22.7386C22.2869 23.0795 21.321 23.3494 20.2244 23.5483C19.1278 23.7472 18.1534 23.8722 17.3011 23.9233C16.4489 23.9744 15.5 24 14.4545 24C13.5682 24 12.7614 23.983 12.0341 23.9489C11.3068 23.9148 10.4688 23.8438 9.51989 23.7358C8.57102 23.6278 7.70455 23.4574 6.92045 23.2244C6.13636 22.9915 5.35795 22.6989 4.58523 22.3466C3.8125 21.9943 3.125 21.5341 2.52273 20.9659C1.92045 20.3977 1.43182 19.7443 1.05682 19.0057C0.352273 17.608 0 15.7273 0 13.3636C0 10.6705 0.772727 8.42045 2.31818 6.61364C2.01136 5.68182 1.85795 4.71591 1.85795 3.71591C1.85795 2.39773 2.14773 1.15909 2.72727 0C3.95455 0 5.03409 0.224432 5.96591 0.673295C6.89773 1.12216 7.97159 1.82386 9.1875 2.77841C10.858 2.38068 12.6136 2.18182 14.4545 2.18182C16.1364 2.18182 17.7273 2.36364 19.2273 2.72727C20.4205 1.79545 21.483 1.10795 22.4148 0.664773C23.3466 0.221591 24.4205 0 25.6364 0C26.2159 1.15909 26.5057 2.39773 26.5057 3.71591C26.5057 4.70455 26.3523 5.65909 26.0455 6.57955C27.5909 8.39773 28.3636 10.6591 28.3636 13.3636Z" fill="white"/>
</g>
<defs>
<clipPath id="clip0_134_7224">
<rect width="28.3636" height="24" fill="white"/>
</clipPath>
</defs>
</svg>
