<svg width="20" height="20" viewBox="0 0 20 20" fill="none" xmlns="http://www.w3.org/2000/svg">
<path fill-rule="evenodd" clip-rule="evenodd" d="M12.1788 2.15309C13.013 1.83472 13.9248 1.7802 14.7909 1.99692C15.5197 2.17929 16.1867 2.54633 16.7289 3.05955C17.467 2.80083 18.1663 2.44076 18.8064 1.98923L19.1666 2.49996L19.7739 2.64784C19.4894 3.81622 18.9115 4.89074 18.0973 5.77086C18.1152 5.92916 18.1244 6.08841 18.125 6.24789L18.125 6.24996C18.125 11.2603 15.7165 14.9166 12.2728 16.7496C8.8443 18.5744 4.45261 18.559 0.529785 16.3796L0.858152 15.2088C2.42835 15.2712 3.98127 14.9248 5.36785 14.212C3.96584 13.4151 2.98535 12.447 2.32353 11.4021C1.51071 10.1187 1.2023 8.75698 1.14646 7.52834C1.09073 6.30243 1.28554 5.19614 1.49124 4.40076C1.59447 4.00161 1.70147 3.67682 1.78363 3.44957C1.78759 3.43862 1.79149 3.4279 1.79533 3.41741L1.77419 3.38732L1.94096 3.05378L2.49998 3.33329L3.01145 2.9741C3.79415 4.08861 4.84033 4.99226 6.05682 5.60456C7.09161 6.12541 8.22232 6.42168 9.37498 6.47684V6.27896C9.36392 5.38774 9.62638 4.51451 10.127 3.77702C10.6285 3.03832 11.3447 2.47146 12.1788 2.15309ZM2.72715 4.61627C2.71856 4.64815 2.70998 4.68065 2.70142 4.71374C2.5165 5.42877 2.34672 6.40582 2.39517 7.47158C2.44349 8.5346 2.708 9.6729 3.37955 10.7333C4.0486 11.7896 5.14542 12.8066 6.92048 13.5955L7.94806 14.0522L7.01766 14.6837C5.89624 15.445 4.64314 15.9732 3.33227 16.2473C6.26484 17.2032 9.26591 16.934 11.6855 15.6462C14.6999 14.0417 16.8746 10.8234 16.875 6.25109C16.8743 6.05797 16.8557 5.86533 16.8194 5.67563L16.7567 5.34771L16.9945 5.11329C17.3542 4.75847 17.6644 4.36001 17.9187 3.92892C17.5333 4.10257 17.1363 4.25113 16.7302 4.37341L16.3434 4.48987L16.0784 4.18511C15.6605 3.70464 15.1052 3.3641 14.4875 3.20954C13.8698 3.05498 13.2195 3.09386 12.6246 3.32092C12.0297 3.54797 11.5189 3.95226 11.1612 4.47909C10.8036 5.00592 10.6164 5.62988 10.6249 6.26658L10.625 6.27496L10.625 7.71729L10.0162 7.73308C8.44867 7.77373 6.89544 7.42608 5.49482 6.7211C4.44773 6.19406 3.51023 5.47955 2.72715 4.61627Z" fill="#FED519"/>
</svg>
