<svg width="20" height="20" viewBox="0 0 20 20" fill="none" xmlns="http://www.w3.org/2000/svg">
<path fill-rule="evenodd" clip-rule="evenodd" d="M12.1788 2.15312C13.013 1.83475 13.9248 1.78023 14.7909 1.99695C15.5197 2.17932 16.1867 2.54636 16.7289 3.05958C17.467 2.80086 18.1663 2.44079 18.8064 1.98926L19.1666 2.49999L19.7739 2.64787C19.4894 3.81625 18.9115 4.89077 18.0973 5.77089C18.1152 5.92919 18.1244 6.08844 18.125 6.24792L18.125 6.24999C18.125 11.2604 15.7165 14.9167 12.2728 16.7496C8.8443 18.5745 4.45261 18.559 0.529785 16.3797L0.858152 15.2088C2.42835 15.2713 3.98127 14.9248 5.36785 14.212C3.96584 13.4151 2.98535 12.4471 2.32353 11.4021C1.51071 10.1187 1.2023 8.75701 1.14646 7.52837C1.09073 6.30246 1.28554 5.19617 1.49124 4.40079C1.59447 4.00164 1.70147 3.67685 1.78363 3.4496C1.78759 3.43865 1.79149 3.42793 1.79533 3.41744L1.77419 3.38735L1.94096 3.05381L2.49998 3.33332L3.01145 2.97413C3.79415 4.08864 4.84033 4.99229 6.05682 5.60459C7.09161 6.12544 8.22232 6.42171 9.37498 6.47687V6.27899C9.36392 5.38777 9.62638 4.51454 10.127 3.77705C10.6285 3.03835 11.3447 2.47149 12.1788 2.15312ZM2.72715 4.6163C2.71856 4.64818 2.70998 4.68068 2.70142 4.71377C2.5165 5.4288 2.34672 6.40585 2.39517 7.47161C2.44349 8.53463 2.708 9.67293 3.37955 10.7333C4.0486 11.7897 5.14542 12.8066 6.92048 13.5955L7.94806 14.0522L7.01766 14.6838C5.89624 15.445 4.64314 15.9732 3.33227 16.2474C6.26484 17.2033 9.26591 16.934 11.6855 15.6462C14.6999 14.0418 16.8746 10.8235 16.875 6.25112C16.8743 6.058 16.8557 5.86536 16.8194 5.67567L16.7567 5.34774L16.9945 5.11332C17.3542 4.75851 17.6644 4.36004 17.9187 3.92895C17.5333 4.1026 17.1363 4.25116 16.7302 4.37344L16.3434 4.4899L16.0784 4.18514C15.6605 3.70467 15.1052 3.36413 14.4875 3.20957C13.8698 3.05501 13.2195 3.09389 12.6246 3.32095C12.0297 3.548 11.5189 3.95229 11.1612 4.47912C10.8036 5.00595 10.6164 5.62991 10.6249 6.26661L10.625 6.27499L10.625 7.71732L10.0162 7.73311C8.44867 7.77376 6.89544 7.42611 5.49482 6.72113C4.44773 6.19409 3.51023 5.47958 2.72715 4.6163Z" fill="#FED519"/>
</svg>
