<svg width="20" height="20" viewBox="0 0 20 20" fill="none" xmlns="http://www.w3.org/2000/svg">
<path fill-rule="evenodd" clip-rule="evenodd" d="M12.1788 2.15315C13.013 1.83478 13.9248 1.78027 14.7909 1.99698C15.5197 2.17935 16.1867 2.54639 16.7289 3.05961C17.467 2.80089 18.1663 2.44082 18.8064 1.98929L19.1666 2.50002L19.7739 2.6479C19.4894 3.81628 18.9115 4.8908 18.0973 5.77092C18.1152 5.92922 18.1244 6.08847 18.125 6.24795L18.125 6.25002C18.125 11.2604 15.7165 14.9167 12.2728 16.7497C8.8443 18.5745 4.45261 18.559 0.529785 16.3797L0.858152 15.2088C2.42835 15.2713 3.98127 14.9248 5.36785 14.212C3.96584 13.4151 2.98535 12.4471 2.32353 11.4021C1.51071 10.1187 1.2023 8.75704 1.14646 7.5284C1.09073 6.30249 1.28554 5.1962 1.49124 4.40082C1.59447 4.00168 1.70147 3.67688 1.78363 3.44963C1.78759 3.43868 1.79149 3.42796 1.79533 3.41747L1.77419 3.38738L1.94096 3.05384L2.49998 3.33335L3.01145 2.97416C3.79415 4.08867 4.84033 4.99232 6.05682 5.60462C7.09161 6.12547 8.22232 6.42174 9.37498 6.4769V6.27902C9.36392 5.3878 9.62638 4.51457 10.127 3.77708C10.6285 3.03839 11.3447 2.47152 12.1788 2.15315ZM2.72715 4.61633C2.71856 4.64821 2.70998 4.68071 2.70142 4.7138C2.5165 5.42883 2.34672 6.40588 2.39517 7.47164C2.44349 8.53466 2.708 9.67296 3.37955 10.7333C4.0486 11.7897 5.14542 12.8066 6.92048 13.5956L7.94806 14.0523L7.01766 14.6838C5.89624 15.445 4.64314 15.9733 3.33227 16.2474C6.26484 17.2033 9.26591 16.9341 11.6855 15.6462C14.6999 14.0418 16.8746 10.8235 16.875 6.25115C16.8743 6.05803 16.8557 5.86539 16.8194 5.6757L16.7567 5.34777L16.9945 5.11335C17.3542 4.75854 17.6644 4.36007 17.9187 3.92898C17.5333 4.10263 17.1363 4.2512 16.7302 4.37347L16.3434 4.48993L16.0784 4.18517C15.6605 3.7047 15.1052 3.36416 14.4875 3.2096C13.8698 3.05504 13.2195 3.09392 12.6246 3.32098C12.0297 3.54804 11.5189 3.95232 11.1612 4.47915C10.8036 5.00598 10.6164 5.62994 10.6249 6.26664L10.625 6.27502L10.625 7.71736L10.0162 7.73314C8.44867 7.77379 6.89544 7.42614 5.49482 6.72116C4.44773 6.19412 3.51023 5.47961 2.72715 4.61633Z" fill="#FED519"/>
</svg>
