<svg width="614" height="304" viewBox="0 0 614 304" fill="none" xmlns="http://www.w3.org/2000/svg">
<g opacity="0.6">
<path d="M0 13.499H614" stroke="#575771" stroke-width="0.335165"/>
<path d="M0 85.4932H614" stroke="#575771" stroke-width="0.335165"/>
<path d="M0 157.487H614" stroke="#575771" stroke-width="0.335165"/>
<path d="M0 229.481H614" stroke="#575771" stroke-width="0.335165"/>
<path d="M0 302.976H614" stroke="#575771" stroke-width="0.335165"/>
</g>
<path d="M606.203 32.1367V98.7747" stroke="#EF5969" stroke-width="0.869553" stroke-miterlimit="10"/>
<path d="M606.203 49.3291V78.7328" stroke="#EF5969" stroke-width="6.9562" stroke-miterlimit="10"/>
<path d="M595.53 41.6924V120.987" stroke="#26AB5F" stroke-width="0.869553" stroke-miterlimit="10"/>
<path d="M595.53 62.5479V109.706" stroke="#26AB5F" stroke-width="6.9562" stroke-miterlimit="10"/>
<path d="M584.846 27.6982V96.7204" stroke="#EF5969" stroke-width="0.869553" stroke-miterlimit="10"/>
<path d="M584.846 43.8633V83.0553" stroke="#EF5969" stroke-width="6.9562" stroke-miterlimit="10"/>
<path d="M574.173 0V82.7064" stroke="#26AB5F" stroke-width="0.869553" stroke-miterlimit="10"/>
<path d="M574.173 16.0693V68.0152" stroke="#26AB5F" stroke-width="6.9562" stroke-miterlimit="10"/>
<path d="M563.499 39.1143V104.744" stroke="#EF5969" stroke-width="0.869553" stroke-miterlimit="10"/>
<path d="M563.499 54.834V86.6218" stroke="#EF5969" stroke-width="6.9562" stroke-miterlimit="10"/>
<path d="M552.814 65.9775V131.937" stroke="#26AB5F" stroke-width="0.869553" stroke-miterlimit="10"/>
<path d="M552.814 86.8145V111.082" stroke="#26AB5F" stroke-width="6.9562" stroke-miterlimit="10"/>
<path d="M542.14 48.8818V116.218" stroke="#EF5969" stroke-width="0.869553" stroke-miterlimit="10"/>
<path d="M542.14 69.7383V95.1297" stroke="#EF5969" stroke-width="6.9562" stroke-miterlimit="10"/>
<path d="M531.467 65.9775V147.657" stroke="#26AB5F" stroke-width="0.869553" stroke-miterlimit="10"/>
<path d="M531.467 86.8145V133.992" stroke="#26AB5F" stroke-width="6.9562" stroke-miterlimit="10"/>
<path d="M520.784 65.9775V122.537" stroke="#EF5969" stroke-width="0.869553" stroke-miterlimit="10"/>
<path d="M520.784 86.8145V109.841" stroke="#EF5969" stroke-width="6.9562" stroke-miterlimit="10"/>
<path d="M510.11 57.082V116.219" stroke="#26AB5F" stroke-width="0.869553" stroke-miterlimit="10"/>
<path d="M510.11 77.9385V95.131" stroke="#26AB5F" stroke-width="6.9562" stroke-miterlimit="10"/>
<path d="M499.425 65.9775V179.095" stroke="#EF5969" stroke-width="0.869553" stroke-miterlimit="10"/>
<path d="M499.425 86.8145V166.788" stroke="#EF5969" stroke-width="6.9562" stroke-miterlimit="10"/>
<path d="M488.752 97.7656V186.616" stroke="#26AB5F" stroke-width="0.869553" stroke-miterlimit="10"/>
<path d="M488.752 118.603V165.761" stroke="#26AB5F" stroke-width="6.9562" stroke-miterlimit="10"/>
<path d="M478.078 101.526V202.685" stroke="#EF5969" stroke-width="0.869553" stroke-miterlimit="10"/>
<path d="M478.078 120.657V181.829" stroke="#EF5969" stroke-width="6.9562" stroke-miterlimit="10"/>
<path d="M467.395 159.617V241.645" stroke="#26AB5F" stroke-width="0.869553" stroke-miterlimit="10"/>
<path d="M467.395 173.631V220.789" stroke="#26AB5F" stroke-width="6.9562" stroke-miterlimit="10"/>
<path d="M456.721 80.5938V169.444" stroke="#EF5969" stroke-width="0.869553" stroke-miterlimit="10"/>
<path d="M456.721 101.429V159.538" stroke="#EF5969" stroke-width="6.9562" stroke-miterlimit="10"/>
<path d="M446.046 87.8428V176.713" stroke="#26AB5F" stroke-width="0.869553" stroke-miterlimit="10"/>
<path d="M446.046 121.336V155.857" stroke="#26AB5F" stroke-width="6.9562" stroke-miterlimit="10"/>
<path d="M435.362 121.336V210.187" stroke="#EF5969" stroke-width="0.869553" stroke-miterlimit="10"/>
<path d="M435.362 159.27V189.352" stroke="#EF5969" stroke-width="6.9562" stroke-miterlimit="10"/>
<path d="M424.688 142.191V231.042" stroke="#26AB5F" stroke-width="0.869553" stroke-miterlimit="10"/>
<path d="M424.688 186.617V210.187" stroke="#26AB5F" stroke-width="6.9562" stroke-miterlimit="10"/>
<path d="M414.015 129.884V218.734" stroke="#EF5969" stroke-width="0.869553" stroke-miterlimit="10"/>
<path d="M414.015 169.192V197.898" stroke="#EF5969" stroke-width="6.9562" stroke-miterlimit="10"/>
<path d="M403.332 121.336V210.187" stroke="#26AB5F" stroke-width="0.869553" stroke-miterlimit="10"/>
<path d="M403.332 153.473V189.35" stroke="#26AB5F" stroke-width="6.9562" stroke-miterlimit="10"/>
<path d="M392.658 143.238V232.089" stroke="#EF5969" stroke-width="0.869553" stroke-miterlimit="10"/>
<path d="M392.658 155.876V211.253" stroke="#EF5969" stroke-width="6.9562" stroke-miterlimit="10"/>
<path d="M381.983 106.274V195.125" stroke="#26AB5F" stroke-width="0.869553" stroke-miterlimit="10"/>
<path d="M381.983 127.131V180.782" stroke="#26AB5F" stroke-width="6.9562" stroke-miterlimit="10"/>
<path d="M371.299 69.7197V158.57" stroke="#EF5969" stroke-width="0.869553" stroke-miterlimit="10"/>
<path d="M371.299 90.5762V144.906" stroke="#EF5969" stroke-width="6.9562" stroke-miterlimit="10"/>
<path d="M360.626 84.7607V173.611" stroke="#26AB5F" stroke-width="0.869553" stroke-miterlimit="10"/>
<path d="M360.626 99.8018V152.775" stroke="#26AB5F" stroke-width="6.9562" stroke-miterlimit="10"/>
<path d="M349.953 66.3271V155.178" stroke="#EF5969" stroke-width="0.869553" stroke-miterlimit="10"/>
<path d="M349.953 87.1641V101.856" stroke="#EF5969" stroke-width="6.9562" stroke-miterlimit="10"/>
<path d="M339.268 46.1494V135" stroke="#26AB5F" stroke-width="0.869553" stroke-miterlimit="10"/>
<path d="M339.268 67.0049V90.5744" stroke="#26AB5F" stroke-width="6.9562" stroke-miterlimit="10"/>
<path d="M328.508 89.2412V195.21" stroke="#EF5969" stroke-width="0.869553" stroke-miterlimit="10"/>
<path d="M328.508 101.147V173.777" stroke="#EF5969" stroke-width="6.9562" stroke-miterlimit="10"/>
<path d="M318.084 148.774V238.074" stroke="#26AB5F" stroke-width="0.869553" stroke-miterlimit="10"/>
<path d="M318.084 126.151V167.824" stroke="#26AB5F" stroke-width="6.9562" stroke-miterlimit="10"/>
<path d="M307.111 144.011V232.119" stroke="#EF5969" stroke-width="0.869553" stroke-miterlimit="10"/>
<path d="M307.111 158.299V211.878" stroke="#EF5969" stroke-width="6.9562" stroke-miterlimit="10"/>
<path d="M7.79655 142.172V185.057" stroke="#EF5969" stroke-width="0.869553" stroke-miterlimit="10"/>
<path d="M7.79655 153.235V172.158" stroke="#EF5969" stroke-width="6.9562" stroke-miterlimit="10"/>
<path d="M18.4696 148.322V199.352" stroke="#26AB5F" stroke-width="0.869553" stroke-miterlimit="10"/>
<path d="M18.4696 161.743V192.092" stroke="#26AB5F" stroke-width="6.9562" stroke-miterlimit="10"/>
<path d="M29.1541 139.315V183.735" stroke="#EF5969" stroke-width="0.869553" stroke-miterlimit="10"/>
<path d="M29.1541 149.72V174.942" stroke="#EF5969" stroke-width="6.9562" stroke-miterlimit="10"/>
<path d="M39.8271 121.49V174.716" stroke="#26AB5F" stroke-width="0.869553" stroke-miterlimit="10"/>
<path d="M39.8271 131.831V165.261" stroke="#26AB5F" stroke-width="6.9562" stroke-miterlimit="10"/>
<path d="M50.5002 146.663V188.899" stroke="#EF5969" stroke-width="0.869553" stroke-miterlimit="10"/>
<path d="M50.5002 156.779V177.236" stroke="#EF5969" stroke-width="6.9562" stroke-miterlimit="10"/>
<path d="M61.1846 163.95V206.398" stroke="#26AB5F" stroke-width="0.869553" stroke-miterlimit="10"/>
<path d="M61.1846 177.36V192.978" stroke="#26AB5F" stroke-width="6.9562" stroke-miterlimit="10"/>
<path d="M71.8596 152.948V196.282" stroke="#EF5969" stroke-width="0.869553" stroke-miterlimit="10"/>
<path d="M71.8596 166.371V182.712" stroke="#EF5969" stroke-width="6.9562" stroke-miterlimit="10"/>
<path d="M82.5326 163.95V216.515" stroke="#26AB5F" stroke-width="0.869553" stroke-miterlimit="10"/>
<path d="M82.5326 177.36V207.722" stroke="#26AB5F" stroke-width="6.9562" stroke-miterlimit="10"/>
<path d="M93.2162 163.95V200.349" stroke="#EF5969" stroke-width="0.869553" stroke-miterlimit="10"/>
<path d="M93.2162 177.36V192.179" stroke="#EF5969" stroke-width="6.9562" stroke-miterlimit="10"/>
<path d="M103.89 158.226V196.283" stroke="#26AB5F" stroke-width="0.869553" stroke-miterlimit="10"/>
<path d="M103.89 171.647V182.712" stroke="#26AB5F" stroke-width="6.9562" stroke-miterlimit="10"/>
<path d="M114.574 163.95V236.747" stroke="#EF5969" stroke-width="0.869553" stroke-miterlimit="10"/>
<path d="M114.574 177.36V228.827" stroke="#EF5969" stroke-width="6.9562" stroke-miterlimit="10"/>
<path d="M125.248 184.407V241.587" stroke="#26AB5F" stroke-width="0.869553" stroke-miterlimit="10"/>
<path d="M125.248 197.817V228.166" stroke="#26AB5F" stroke-width="6.9562" stroke-miterlimit="10"/>
<path d="M135.922 186.827V251.928" stroke="#EF5969" stroke-width="0.869553" stroke-miterlimit="10"/>
<path d="M135.922 199.14V238.507" stroke="#EF5969" stroke-width="6.9562" stroke-miterlimit="10"/>
<path d="M146.605 224.211V277" stroke="#26AB5F" stroke-width="0.869553" stroke-miterlimit="10"/>
<path d="M146.605 233.23V263.579" stroke="#26AB5F" stroke-width="6.9562" stroke-miterlimit="10"/>
<path d="M157.279 173.355V230.535" stroke="#EF5969" stroke-width="0.869553" stroke-miterlimit="10"/>
<path d="M157.279 186.766V224.162" stroke="#EF5969" stroke-width="6.9562" stroke-miterlimit="10"/>
<path d="M167.953 178.022V235.215" stroke="#26AB5F" stroke-width="0.869553" stroke-miterlimit="10"/>
<path d="M167.953 199.576V221.792" stroke="#26AB5F" stroke-width="6.9562" stroke-miterlimit="10"/>
<path d="M178.637 199.576V256.756" stroke="#EF5969" stroke-width="0.869553" stroke-miterlimit="10"/>
<path d="M178.637 223.988V243.348" stroke="#EF5969" stroke-width="6.9562" stroke-miterlimit="10"/>
<path d="M189.311 212.998V270.178" stroke="#26AB5F" stroke-width="0.869553" stroke-miterlimit="10"/>
<path d="M189.311 241.588V256.756" stroke="#26AB5F" stroke-width="6.9562" stroke-miterlimit="10"/>
<path d="M199.985 205.076V262.256" stroke="#EF5969" stroke-width="0.869553" stroke-miterlimit="10"/>
<path d="M199.985 230.374V248.848" stroke="#EF5969" stroke-width="6.9562" stroke-miterlimit="10"/>
<path d="M210.668 199.576V256.756" stroke="#26AB5F" stroke-width="0.869553" stroke-miterlimit="10"/>
<path d="M210.668 220.258V243.347" stroke="#26AB5F" stroke-width="6.9562" stroke-miterlimit="10"/>
<path d="M221.342 213.672V270.852" stroke="#EF5969" stroke-width="0.869553" stroke-miterlimit="10"/>
<path d="M221.342 221.805V257.442" stroke="#EF5969" stroke-width="6.9562" stroke-miterlimit="10"/>
<path d="M232.016 189.884V247.064" stroke="#26AB5F" stroke-width="0.869553" stroke-miterlimit="10"/>
<path d="M232.016 203.306V237.833" stroke="#26AB5F" stroke-width="6.9562" stroke-miterlimit="10"/>
<path d="M242.701 166.359V223.539" stroke="#EF5969" stroke-width="0.869553" stroke-miterlimit="10"/>
<path d="M242.701 179.78V214.744" stroke="#EF5969" stroke-width="6.9562" stroke-miterlimit="10"/>
<path d="M253.374 176.038V233.218" stroke="#26AB5F" stroke-width="0.869553" stroke-miterlimit="10"/>
<path d="M253.374 185.718V219.809" stroke="#26AB5F" stroke-width="6.9562" stroke-miterlimit="10"/>
<path d="M264.048 164.176V221.356" stroke="#EF5969" stroke-width="0.869553" stroke-miterlimit="10"/>
<path d="M264.048 177.584V187.039" stroke="#EF5969" stroke-width="6.9562" stroke-miterlimit="10"/>
<path d="M274.732 151.19V208.37" stroke="#26AB5F" stroke-width="0.869553" stroke-miterlimit="10"/>
<path d="M274.732 164.611V179.779" stroke="#26AB5F" stroke-width="6.9562" stroke-miterlimit="10"/>
<path d="M285.492 178.921V247.117" stroke="#EF5969" stroke-width="0.869553" stroke-miterlimit="10"/>
<path d="M285.492 186.583V233.324" stroke="#EF5969" stroke-width="6.9562" stroke-miterlimit="10"/>
<path d="M295.916 190.988V248.457" stroke="#26AB5F" stroke-width="0.869553" stroke-miterlimit="10"/>
<path d="M295.916 202.675V229.493" stroke="#26AB5F" stroke-width="6.9562" stroke-miterlimit="10"/>
</svg>
