<svg width="22" height="22" viewBox="0 0 22 22" fill="none" xmlns="http://www.w3.org/2000/svg">
<path d="M10.3125 7.5625H11.6875V13.75H10.3125V7.5625ZM8.9375 1.375H13.0625V2.75H8.9375V1.375Z" fill="#26AB5F"/>
<path d="M19.2497 6.18727L18.2735 5.2179L16.7266 6.76477C15.4604 5.30248 13.6794 4.38426 11.7538 4.20088C9.8282 4.01751 7.90595 4.58308 6.38648 5.7801C4.867 6.97711 3.86712 8.71352 3.59458 10.6286C3.32205 12.5436 3.79781 14.49 4.92302 16.0634C6.04823 17.6368 7.73637 18.7162 9.6367 19.0773C11.537 19.4384 13.5034 19.0535 15.1273 18.0025C16.7512 16.9515 17.9078 15.3153 18.3567 13.4337C18.8056 11.5522 18.5124 9.57008 17.5379 7.89915L19.2497 6.18727ZM10.9997 17.8748C9.77597 17.8748 8.57968 17.5119 7.56215 16.832C6.54462 16.1521 5.75156 15.1857 5.28324 14.0551C4.81492 12.9245 4.69239 11.6804 4.93114 10.4802C5.16988 9.27989 5.75918 8.17739 6.62452 7.31205C7.48986 6.44671 8.59237 5.85741 9.79262 5.61866C10.9929 5.37992 12.237 5.50245 13.3676 5.97077C14.4982 6.43909 15.4646 7.23215 16.1445 8.24968C16.8244 9.26721 17.1872 10.4635 17.1872 11.6873C17.1872 13.3283 16.5353 14.9021 15.375 16.0625C14.2146 17.2229 12.6408 17.8748 10.9997 17.8748Z" fill="#26AB5F"/>
</svg>
