<svg width="26" height="26" viewBox="0 0 26 26" fill="none" xmlns="http://www.w3.org/2000/svg">
<path d="M18.6868 16.6684C18.6868 12.9187 15.6156 12.4914 13.148 12.1485C10.4586 11.7747 8.93681 11.4497 8.93681 9.13412C8.93681 7.19062 10.9738 6.5 12.7182 6.5C13.5875 6.47192 14.4511 6.65088 15.2377 7.02213C16.0242 7.39338 16.7113 7.94628 17.2422 8.63525L18.5064 7.61475C17.9379 6.88364 17.2305 6.27211 16.4248 5.81531C15.6191 5.35851 14.7311 5.06546 13.8118 4.953V2.4375H12.1868V4.89287C9.24962 5.07162 7.31181 6.72912 7.31181 9.13412C7.31181 12.9773 10.4237 13.4103 12.9237 13.7572C15.5668 14.1253 17.0618 14.4414 17.0618 16.6684C17.0618 19.1319 14.5162 19.5 12.9993 19.5C10.2124 19.5 9.03594 18.7167 7.94394 17.3647L6.67969 18.3853C7.32381 19.2341 8.1569 19.921 9.11286 20.3917C10.0688 20.8623 11.1213 21.1037 12.1868 21.0966V23.5625H13.8118V21.0884C16.8392 20.8414 18.6868 19.1978 18.6868 16.6684Z" fill="#00B2FF"/>
</svg>
