<svg width="20" height="20" viewBox="0 0 20 20" fill="none" xmlns="http://www.w3.org/2000/svg">
<path d="M10 14.375C9.81458 14.375 9.63332 14.43 9.47915 14.533C9.32498 14.636 9.20482 14.7824 9.13386 14.9537C9.06291 15.125 9.04434 15.3135 9.08051 15.4954C9.11669 15.6773 9.20598 15.8443 9.33709 15.9754C9.4682 16.1065 9.63525 16.1958 9.8171 16.232C9.99896 16.2682 10.1875 16.2496 10.3588 16.1786C10.5301 16.1077 10.6765 15.9875 10.7795 15.8333C10.8825 15.6792 10.9375 15.4979 10.9375 15.3125C10.9375 15.0639 10.8387 14.8254 10.6629 14.6496C10.4871 14.4738 10.2486 14.375 10 14.375ZM9.375 7.5H10.625V13.125H9.375V7.5Z" fill="#FF2F45"/>
<path d="M18.1247 18.7495H1.87475C1.76742 18.7495 1.6619 18.7218 1.56837 18.6691C1.47485 18.6165 1.39645 18.5406 1.34075 18.4489C1.28505 18.3571 1.25391 18.2526 1.25035 18.1453C1.24678 18.038 1.27089 17.9316 1.32037 17.8364L9.44537 2.21139C9.49817 2.10998 9.57777 2.02499 9.67552 1.96568C9.77327 1.90636 9.88541 1.875 9.99975 1.875C10.1141 1.875 10.2262 1.90636 10.324 1.96568C10.4217 2.02499 10.5013 2.10998 10.5541 2.21139L18.6791 17.8364C18.7286 17.9316 18.7527 18.038 18.7492 18.1453C18.7456 18.2526 18.7144 18.3571 18.6587 18.4489C18.603 18.5406 18.5247 18.6165 18.4311 18.6691C18.3376 18.7218 18.2321 18.7495 18.1247 18.7495ZM2.906 17.4995H17.0935L17.0941 17.4976L10.001 3.85577H9.9985L2.90475 17.4976L2.906 17.4995Z" fill="#FF2F45"/>
</svg>
