<svg width="20" height="20" viewBox="0 0 20 20" fill="none" xmlns="http://www.w3.org/2000/svg">
<path d="M5.625 4.375C5.97018 4.375 6.25 4.09518 6.25 3.75C6.25 3.40482 5.97018 3.125 5.625 3.125C5.27982 3.125 5 3.40482 5 3.75C5 4.09518 5.27982 4.375 5.625 4.375Z" fill="#FB9B20"/>
<path d="M16.25 6.25H3.75C3.41858 6.24967 3.10083 6.11787 2.86648 5.88352C2.63213 5.64917 2.50033 5.33142 2.5 5V2.5C2.50033 2.16858 2.63213 1.85083 2.86648 1.61648C3.10083 1.38213 3.41858 1.25033 3.75 1.25H16.25C16.5814 1.25033 16.8992 1.38213 17.1335 1.61648C17.3679 1.85083 17.4997 2.16858 17.5 2.5V5C17.4997 5.33142 17.3679 5.64917 17.1335 5.88352C16.8992 6.11787 16.5814 6.24967 16.25 6.25ZM3.75 2.5V5H16.25V2.5H3.75Z" fill="#FB9B20"/>
<path d="M5.625 10.625C5.97018 10.625 6.25 10.3452 6.25 10C6.25 9.65482 5.97018 9.375 5.625 9.375C5.27982 9.375 5 9.65482 5 10C5 10.3452 5.27982 10.625 5.625 10.625Z" fill="#FB9B20"/>
<path d="M16.25 12.5H3.75C3.41858 12.4997 3.10083 12.3679 2.86648 12.1335C2.63213 11.8992 2.50033 11.5814 2.5 11.25V8.75C2.50033 8.41858 2.63213 8.10083 2.86648 7.86648C3.10083 7.63213 3.41858 7.50033 3.75 7.5H16.25C16.5814 7.50033 16.8992 7.63213 17.1335 7.86648C17.3679 8.10083 17.4997 8.41858 17.5 8.75V11.25C17.4997 11.5814 17.3679 11.8992 17.1335 12.1335C16.8992 12.3679 16.5814 12.4997 16.25 12.5ZM3.75 8.75V11.25H16.25V8.75H3.75Z" fill="#FB9B20"/>
<path d="M5.625 16.875C5.97018 16.875 6.25 16.5952 6.25 16.25C6.25 15.9048 5.97018 15.625 5.625 15.625C5.27982 15.625 5 15.9048 5 16.25C5 16.5952 5.27982 16.875 5.625 16.875Z" fill="#FB9B20"/>
<path d="M16.25 18.75H3.75C3.41858 18.7497 3.10083 18.6179 2.86648 18.3835C2.63213 18.1492 2.50033 17.8314 2.5 17.5V15C2.50033 14.6686 2.63213 14.3508 2.86648 14.1165C3.10083 13.8821 3.41858 13.7503 3.75 13.75H16.25C16.5814 13.7503 16.8992 13.8821 17.1335 14.1165C17.3679 14.3508 17.4997 14.6686 17.5 15V17.5C17.4997 17.8314 17.3679 18.1492 17.1335 18.3835C16.8992 18.6179 16.5814 18.7497 16.25 18.75ZM3.75 15V17.5H16.25V15H3.75Z" fill="#FB9B20"/>
</svg>
