<svg width="26" height="26" viewBox="0 0 26 26" fill="none" xmlns="http://www.w3.org/2000/svg">
<path d="M3.79437 22.75L8.98625 13L14.9175 18.2731C15.1032 18.4381 15.3243 18.5583 15.5638 18.6245C15.8032 18.6907 16.0546 18.7012 16.2987 18.655C16.5451 18.6089 16.7774 18.5064 16.9775 18.3556C17.1777 18.2048 17.3402 18.0097 17.4525 17.7856L21.9375 8.85625L20.4587 8.125L15.9981 17.0625L10.0669 11.7894C9.88586 11.621 9.66882 11.4962 9.43228 11.4244C9.19573 11.3526 8.94593 11.3357 8.70188 11.375C8.46086 11.415 8.23195 11.5088 8.0322 11.6495C7.83245 11.7901 7.66699 11.974 7.54812 12.1875L3.25 20.3125V1.625H1.625V22.75C1.625 23.181 1.7962 23.5943 2.10095 23.899C2.4057 24.2038 2.81902 24.375 3.25 24.375H24.375V22.75H3.79437Z" fill="#3CC8C8"/>
</svg>
