<svg width="614" height="256" viewBox="0 0 614 256" fill="none" xmlns="http://www.w3.org/2000/svg">
<g opacity="0.6">
<path d="M0 11.3721H614" stroke="#575771" stroke-width="0.335165"/>
<path d="M0 72.0225H614" stroke="#575771" stroke-width="0.335165"/>
<path d="M0 132.673H614" stroke="#575771" stroke-width="0.335165"/>
<path d="M0 193.323H614" stroke="#575771" stroke-width="0.335165"/>
<path d="M0 255.237H614" stroke="#575771" stroke-width="0.335165"/>
</g>
<path d="M606.203 27.0732V83.2114" stroke="#EF5969" stroke-width="0.869553" stroke-miterlimit="10"/>
<path d="M606.203 41.5566V66.3273" stroke="#EF5969" stroke-width="6.9562" stroke-miterlimit="10"/>
<path d="M595.53 35.123V101.924" stroke="#26AB5F" stroke-width="0.869553" stroke-miterlimit="10"/>
<path d="M595.53 52.6924V92.4202" stroke="#26AB5F" stroke-width="6.9562" stroke-miterlimit="10"/>
<path d="M584.846 23.334V81.4806" stroke="#EF5969" stroke-width="0.869553" stroke-miterlimit="10"/>
<path d="M584.846 36.9521V69.9688" stroke="#EF5969" stroke-width="6.9562" stroke-miterlimit="10"/>
<path d="M574.173 0V69.6747" stroke="#26AB5F" stroke-width="0.869553" stroke-miterlimit="10"/>
<path d="M574.173 13.5371V57.2981" stroke="#26AB5F" stroke-width="6.9562" stroke-miterlimit="10"/>
<path d="M563.499 32.9512V88.2402" stroke="#EF5969" stroke-width="0.869553" stroke-miterlimit="10"/>
<path d="M563.499 46.1943V72.9734" stroke="#EF5969" stroke-width="6.9562" stroke-miterlimit="10"/>
<path d="M552.814 55.582V111.149" stroke="#26AB5F" stroke-width="0.869553" stroke-miterlimit="10"/>
<path d="M552.814 73.1357V93.5793" stroke="#26AB5F" stroke-width="6.9562" stroke-miterlimit="10"/>
<path d="M542.141 41.1797V97.9057" stroke="#EF5969" stroke-width="0.869553" stroke-miterlimit="10"/>
<path d="M542.141 58.75V80.1406" stroke="#EF5969" stroke-width="6.9562" stroke-miterlimit="10"/>
<path d="M531.467 55.582V124.391" stroke="#26AB5F" stroke-width="0.869553" stroke-miterlimit="10"/>
<path d="M531.467 73.1357V112.88" stroke="#26AB5F" stroke-width="6.9562" stroke-miterlimit="10"/>
<path d="M520.783 55.582V103.229" stroke="#EF5969" stroke-width="0.869553" stroke-miterlimit="10"/>
<path d="M520.783 73.1357V92.5343" stroke="#EF5969" stroke-width="6.9562" stroke-miterlimit="10"/>
<path d="M510.109 48.0879V97.9068" stroke="#26AB5F" stroke-width="0.869553" stroke-miterlimit="10"/>
<path d="M510.109 65.6582V80.1418" stroke="#26AB5F" stroke-width="6.9562" stroke-miterlimit="10"/>
<path d="M499.425 55.582V150.876" stroke="#EF5969" stroke-width="0.869553" stroke-miterlimit="10"/>
<path d="M499.425 73.1357V140.508" stroke="#EF5969" stroke-width="6.9562" stroke-miterlimit="10"/>
<path d="M488.752 82.3613V157.212" stroke="#26AB5F" stroke-width="0.869553" stroke-miterlimit="10"/>
<path d="M488.752 99.915V139.643" stroke="#26AB5F" stroke-width="6.9562" stroke-miterlimit="10"/>
<path d="M478.078 85.5293V170.749" stroke="#EF5969" stroke-width="0.869553" stroke-miterlimit="10"/>
<path d="M478.078 101.646V153.179" stroke="#EF5969" stroke-width="6.9562" stroke-miterlimit="10"/>
<path d="M467.395 134.467V203.57" stroke="#26AB5F" stroke-width="0.869553" stroke-miterlimit="10"/>
<path d="M467.395 146.272V186" stroke="#26AB5F" stroke-width="6.9562" stroke-miterlimit="10"/>
<path d="M456.722 67.8945V142.745" stroke="#EF5969" stroke-width="0.869553" stroke-miterlimit="10"/>
<path d="M456.722 85.4473V134.401" stroke="#EF5969" stroke-width="6.9562" stroke-miterlimit="10"/>
<path d="M446.046 74.002V148.869" stroke="#26AB5F" stroke-width="0.869553" stroke-miterlimit="10"/>
<path d="M446.046 102.218V131.299" stroke="#26AB5F" stroke-width="6.9562" stroke-miterlimit="10"/>
<path d="M435.362 102.218V177.069" stroke="#EF5969" stroke-width="0.869553" stroke-miterlimit="10"/>
<path d="M435.362 134.174V159.516" stroke="#EF5969" stroke-width="6.9562" stroke-miterlimit="10"/>
<path d="M424.688 119.787V194.638" stroke="#26AB5F" stroke-width="0.869553" stroke-miterlimit="10"/>
<path d="M424.688 157.213V177.069" stroke="#26AB5F" stroke-width="6.9562" stroke-miterlimit="10"/>
<path d="M414.015 109.419V184.27" stroke="#EF5969" stroke-width="0.869553" stroke-miterlimit="10"/>
<path d="M414.015 142.533V166.716" stroke="#EF5969" stroke-width="6.9562" stroke-miterlimit="10"/>
<path d="M403.331 102.218V177.069" stroke="#26AB5F" stroke-width="0.869553" stroke-miterlimit="10"/>
<path d="M403.331 129.291V159.515" stroke="#26AB5F" stroke-width="6.9562" stroke-miterlimit="10"/>
<path d="M392.657 120.669V195.52" stroke="#EF5969" stroke-width="0.869553" stroke-miterlimit="10"/>
<path d="M392.657 131.315V177.967" stroke="#EF5969" stroke-width="6.9562" stroke-miterlimit="10"/>
<path d="M381.982 89.5293V164.38" stroke="#26AB5F" stroke-width="0.869553" stroke-miterlimit="10"/>
<path d="M381.982 107.1V152.298" stroke="#26AB5F" stroke-width="6.9562" stroke-miterlimit="10"/>
<path d="M371.299 58.7344V133.585" stroke="#EF5969" stroke-width="0.869553" stroke-miterlimit="10"/>
<path d="M371.299 76.3047V122.074" stroke="#EF5969" stroke-width="6.9562" stroke-miterlimit="10"/>
<path d="M360.626 71.4053V146.256" stroke="#26AB5F" stroke-width="0.869553" stroke-miterlimit="10"/>
<path d="M360.626 84.0762V128.703" stroke="#26AB5F" stroke-width="6.9562" stroke-miterlimit="10"/>
<path d="M349.953 55.876V130.727" stroke="#EF5969" stroke-width="0.869553" stroke-miterlimit="10"/>
<path d="M349.953 73.4297V85.8069" stroke="#EF5969" stroke-width="6.9562" stroke-miterlimit="10"/>
<path d="M339.269 38.8779V113.729" stroke="#26AB5F" stroke-width="0.869553" stroke-miterlimit="10"/>
<path d="M339.269 56.4473V76.303" stroke="#26AB5F" stroke-width="6.9562" stroke-miterlimit="10"/>
<path d="M328.508 75.1797V164.451" stroke="#EF5969" stroke-width="0.869553" stroke-miterlimit="10"/>
<path d="M328.508 85.21V146.396" stroke="#EF5969" stroke-width="6.9562" stroke-miterlimit="10"/>
<path d="M318.084 125.333V200.562" stroke="#26AB5F" stroke-width="0.869553" stroke-miterlimit="10"/>
<path d="M318.084 106.274V141.381" stroke="#26AB5F" stroke-width="6.9562" stroke-miterlimit="10"/>
<path d="M307.111 121.319V195.545" stroke="#EF5969" stroke-width="0.869553" stroke-miterlimit="10"/>
<path d="M307.111 133.356V178.494" stroke="#EF5969" stroke-width="6.9562" stroke-miterlimit="10"/>
<path d="M7.79688 122.195V163.35" stroke="#EF5969" stroke-width="0.869553" stroke-miterlimit="10"/>
<path d="M7.79688 132.812V150.972" stroke="#EF5969" stroke-width="6.9562" stroke-miterlimit="10"/>
<path d="M18.4697 128.097V177.068" stroke="#26AB5F" stroke-width="0.869553" stroke-miterlimit="10"/>
<path d="M18.4697 140.977V170.101" stroke="#26AB5F" stroke-width="6.9562" stroke-miterlimit="10"/>
<path d="M29.1543 119.454V162.081" stroke="#EF5969" stroke-width="0.869553" stroke-miterlimit="10"/>
<path d="M29.1543 129.438V153.642" stroke="#EF5969" stroke-width="6.9562" stroke-miterlimit="10"/>
<path d="M39.8271 102.348V153.426" stroke="#26AB5F" stroke-width="0.869553" stroke-miterlimit="10"/>
<path d="M39.8271 112.271V144.353" stroke="#26AB5F" stroke-width="6.9562" stroke-miterlimit="10"/>
<path d="M50.5005 126.505V167.037" stroke="#EF5969" stroke-width="0.869553" stroke-miterlimit="10"/>
<path d="M50.5005 136.213V155.845" stroke="#EF5969" stroke-width="6.9562" stroke-miterlimit="10"/>
<path d="M61.1851 143.095V183.831" stroke="#26AB5F" stroke-width="0.869553" stroke-miterlimit="10"/>
<path d="M61.1851 155.964V170.951" stroke="#26AB5F" stroke-width="6.9562" stroke-miterlimit="10"/>
<path d="M71.8599 132.537V174.123" stroke="#EF5969" stroke-width="0.869553" stroke-miterlimit="10"/>
<path d="M71.8599 145.418V161.099" stroke="#EF5969" stroke-width="6.9562" stroke-miterlimit="10"/>
<path d="M82.5327 143.095V193.539" stroke="#26AB5F" stroke-width="0.869553" stroke-miterlimit="10"/>
<path d="M82.5327 155.964V185.1" stroke="#26AB5F" stroke-width="6.9562" stroke-miterlimit="10"/>
<path d="M93.2163 143.095V178.025" stroke="#EF5969" stroke-width="0.869553" stroke-miterlimit="10"/>
<path d="M93.2163 155.964V170.185" stroke="#EF5969" stroke-width="6.9562" stroke-miterlimit="10"/>
<path d="M103.891 137.602V174.124" stroke="#26AB5F" stroke-width="0.869553" stroke-miterlimit="10"/>
<path d="M103.891 150.481V161.099" stroke="#26AB5F" stroke-width="6.9562" stroke-miterlimit="10"/>
<path d="M114.574 143.095V212.955" stroke="#EF5969" stroke-width="0.869553" stroke-miterlimit="10"/>
<path d="M114.574 155.964V205.355" stroke="#EF5969" stroke-width="6.9562" stroke-miterlimit="10"/>
<path d="M125.248 162.727V217.6" stroke="#26AB5F" stroke-width="0.869553" stroke-miterlimit="10"/>
<path d="M125.248 175.596V204.72" stroke="#26AB5F" stroke-width="6.9562" stroke-miterlimit="10"/>
<path d="M135.922 165.049V227.523" stroke="#EF5969" stroke-width="0.869553" stroke-miterlimit="10"/>
<path d="M135.922 176.864V214.643" stroke="#EF5969" stroke-width="6.9562" stroke-miterlimit="10"/>
<path d="M146.605 200.925V251.584" stroke="#26AB5F" stroke-width="0.869553" stroke-miterlimit="10"/>
<path d="M146.605 209.58V238.705" stroke="#26AB5F" stroke-width="6.9562" stroke-miterlimit="10"/>
<path d="M157.279 152.121V206.994" stroke="#EF5969" stroke-width="0.869553" stroke-miterlimit="10"/>
<path d="M157.279 164.989V200.877" stroke="#EF5969" stroke-width="6.9562" stroke-miterlimit="10"/>
<path d="M167.953 156.599V211.484" stroke="#26AB5F" stroke-width="0.869553" stroke-miterlimit="10"/>
<path d="M167.953 177.284V198.604" stroke="#26AB5F" stroke-width="6.9562" stroke-miterlimit="10"/>
<path d="M178.637 177.284V232.157" stroke="#EF5969" stroke-width="0.869553" stroke-miterlimit="10"/>
<path d="M178.637 200.711V219.289" stroke="#EF5969" stroke-width="6.9562" stroke-miterlimit="10"/>
<path d="M189.311 190.164V245.037" stroke="#26AB5F" stroke-width="0.869553" stroke-miterlimit="10"/>
<path d="M189.311 217.601V232.157" stroke="#26AB5F" stroke-width="6.9562" stroke-miterlimit="10"/>
<path d="M199.985 182.562V237.436" stroke="#EF5969" stroke-width="0.869553" stroke-miterlimit="10"/>
<path d="M199.985 206.839V224.567" stroke="#EF5969" stroke-width="6.9562" stroke-miterlimit="10"/>
<path d="M210.669 177.284V232.157" stroke="#26AB5F" stroke-width="0.869553" stroke-miterlimit="10"/>
<path d="M210.669 197.131V219.288" stroke="#26AB5F" stroke-width="6.9562" stroke-miterlimit="10"/>
<path d="M221.343 190.811V245.684" stroke="#EF5969" stroke-width="0.869553" stroke-miterlimit="10"/>
<path d="M221.343 198.615V232.815" stroke="#EF5969" stroke-width="6.9562" stroke-miterlimit="10"/>
<path d="M232.017 167.982V222.856" stroke="#26AB5F" stroke-width="0.869553" stroke-miterlimit="10"/>
<path d="M232.017 180.862V213.997" stroke="#26AB5F" stroke-width="6.9562" stroke-miterlimit="10"/>
<path d="M242.701 145.406V200.28" stroke="#EF5969" stroke-width="0.869553" stroke-miterlimit="10"/>
<path d="M242.701 158.286V191.84" stroke="#EF5969" stroke-width="6.9562" stroke-miterlimit="10"/>
<path d="M253.374 154.695V209.569" stroke="#26AB5F" stroke-width="0.869553" stroke-miterlimit="10"/>
<path d="M253.374 163.984V196.7" stroke="#26AB5F" stroke-width="6.9562" stroke-miterlimit="10"/>
<path d="M264.048 143.311V198.184" stroke="#EF5969" stroke-width="0.869553" stroke-miterlimit="10"/>
<path d="M264.048 156.179V165.252" stroke="#EF5969" stroke-width="6.9562" stroke-miterlimit="10"/>
<path d="M274.732 130.85V185.723" stroke="#26AB5F" stroke-width="0.869553" stroke-miterlimit="10"/>
<path d="M274.732 143.729V158.286" stroke="#26AB5F" stroke-width="6.9562" stroke-miterlimit="10"/>
<path d="M285.492 157.462V222.907" stroke="#EF5969" stroke-width="0.869553" stroke-miterlimit="10"/>
<path d="M285.492 164.814V209.67" stroke="#EF5969" stroke-width="6.9562" stroke-miterlimit="10"/>
<path d="M295.916 169.042V224.192" stroke="#26AB5F" stroke-width="0.869553" stroke-miterlimit="10"/>
<path d="M295.916 180.257V205.994" stroke="#26AB5F" stroke-width="6.9562" stroke-miterlimit="10"/>
</svg>
