<svg width="257" height="63" viewBox="0 0 257 63" fill="none" xmlns="http://www.w3.org/2000/svg">
<g clip-path="url(#clip0_138_1794)">
<path d="M13.1057 6.02863L61.859 39.3172L49.8018 57.1409L1.04846 23.5903L13.1057 6.02863Z" fill="url(#paint0_linear_138_1794)"/>
<path d="M61.859 39.3172C57.6652 45.3458 43.511 42.9868 30.1432 33.5506C16.5132 24.3766 9.17401 12.0573 13.1057 6.02862C17.2996 -7.62939e-06 31.4537 2.35902 44.8216 11.7951C58.4515 20.707 65.7907 33.2885 61.859 39.3172Z" fill="url(#paint1_linear_138_1794)"/>
<path d="M49.8018 56.8788C45.6079 62.9075 31.4537 60.5484 18.0859 51.1123C4.71807 41.6762 -2.88325 29.6189 1.31058 23.3282C5.50441 17.2996 19.6586 19.6586 33.0264 29.0947C46.3943 38.5308 53.7335 50.8502 49.8018 56.8788Z" fill="url(#paint2_linear_138_1794)"/>
<path d="M61.859 39.3171L49.8018 57.1409C45.6079 63.1695 31.4537 60.5484 18.0859 51.3744C15.4648 49.5396 13.1057 47.7048 10.7467 45.6079C12.5815 45.3458 14.9405 44.2973 17.2996 41.6762C21.4934 37.2202 23.5903 36.1718 25.4251 36.4339C27.2599 36.4339 29.3568 38.2687 32.7643 42.7246C36.1718 47.1806 40.8899 48.4911 43.7731 46.1321C44.0352 45.87 44.2974 45.87 44.5595 45.6079C46.9185 43.7731 47.7048 42.9867 52.1608 34.5991C53.2092 32.5022 56.8788 29.0947 61.859 30.6674C63.1696 34.0748 63.1696 36.9581 61.859 39.3171Z" fill="#0E0F23"/>
<path fill-rule="evenodd" clip-rule="evenodd" d="M60.0242 38.2687C56.3546 43.511 43.511 40.8899 31.1916 32.2401C18.6101 23.5903 11.2709 12.5815 14.9405 7.33922C18.6101 2.09693 31.4537 4.71807 43.7731 13.3678C56.0925 22.0176 63.4317 33.0264 60.0242 38.2687ZM48.4912 30.4053C46.6564 33.0264 40.3656 31.7159 34.0749 27.522C28.0462 23.3282 24.3766 17.8238 26.2114 15.2027C28.0462 12.5815 34.337 13.8921 40.6277 18.0859C46.6564 22.2797 50.326 27.7841 48.4912 30.4053Z" fill="white"/>
<path d="M12.0573 12.0573C12.0573 11.7952 11.7952 11.533 11.533 11.7952C11.2709 12.0573 11.0088 12.0573 11.0088 12.3194C11.2709 13.1057 11.533 13.63 11.533 14.1542C11.533 14.4163 11.7952 14.6784 12.0573 14.4163C12.3194 14.4163 12.5815 14.1542 12.3194 13.8921C12.3194 13.3678 12.3194 12.8436 12.0573 12.0573Z" fill="white"/>
<path d="M13.3678 16.2511C13.3678 15.9889 13.1057 15.7268 12.8436 15.9889C12.5815 16.2511 12.5815 16.2511 12.5815 16.5132C15.4648 23.066 21.4934 30.1431 29.3568 35.3854C29.6189 35.6475 29.8811 35.3854 30.1432 35.3854C30.4053 35.1233 30.1432 34.8612 30.1432 34.5991C22.0176 29.3568 16.2511 22.5418 13.3678 16.2511Z" fill="white"/>
<path d="M45.0837 41.9383C44.8216 41.9383 44.5594 41.9383 44.5594 42.2004C44.5594 42.4625 44.5594 42.7246 44.8216 42.7246C45.6079 42.9867 46.6564 43.2489 47.4427 43.511C47.7048 43.511 47.9669 43.511 47.9669 43.2489C47.9669 42.9868 47.9669 42.7246 47.7048 42.7246C46.9185 42.4625 45.87 42.2004 45.0837 41.9383Z" fill="white"/>
<path d="M49.8018 42.9868C49.5396 42.9868 49.2775 43.2489 49.2775 43.511C49.2775 43.7731 49.5396 44.0352 49.8018 44.0352C51.8987 44.2973 54.2577 44.5594 56.0925 44.2973C56.3546 44.2973 56.6167 44.0352 56.6167 43.7731C56.6167 43.511 56.3546 43.2489 56.0925 43.2489C53.9956 43.511 51.8987 43.2489 49.8018 42.9868Z" fill="white"/>
</g>
<path d="M84.258 41.573C82.4823 41.573 80.7614 41.3234 79.0952 40.8241C77.451 40.3249 76.1466 39.6628 75.182 38.8379L76.6618 35.5493C77.6045 36.2873 78.7554 36.8951 80.1146 37.3727C81.4958 37.8285 82.8769 38.0565 84.258 38.0565C85.968 38.0565 87.2395 37.7851 88.0726 37.2424C88.9276 36.6998 89.3551 35.9834 89.3551 35.0934C89.3551 34.4422 89.1139 33.9104 88.6316 33.4979C88.1713 33.0638 87.5793 32.7273 86.8559 32.4886C86.1324 32.2498 85.1459 31.9784 83.8963 31.6745C82.1425 31.2621 80.7175 30.8497 79.6214 30.4372C78.5472 30.0248 77.6154 29.3844 76.8262 28.5161C76.0589 27.6261 75.6753 26.4322 75.6753 24.9345C75.6753 23.6754 76.0151 22.5358 76.6947 21.5156C77.3962 20.4736 78.4375 19.6487 79.8187 19.0409C81.2217 18.4331 82.9317 18.1292 84.9486 18.1292C86.3517 18.1292 87.7328 18.3029 89.092 18.6502C90.4512 18.9975 91.6241 19.4968 92.6106 20.148L91.2624 23.4367C90.2539 22.8506 89.2016 22.4056 88.1055 22.1017C87.0093 21.7978 85.9461 21.6458 84.9157 21.6458C83.2277 21.6458 81.9671 21.928 81.134 22.4924C80.3229 23.0568 79.9173 23.8057 79.9173 24.7391C79.9173 25.3903 80.1475 25.9221 80.6079 26.3346C81.0902 26.747 81.6931 27.0726 82.4165 27.3114C83.14 27.5502 84.1265 27.8215 85.3761 28.1254C87.0861 28.5161 88.4891 28.9286 89.5853 29.3627C90.6814 29.7752 91.6131 30.4155 92.3804 31.2838C93.1697 32.1521 93.5643 33.3243 93.5643 34.8004C93.5643 36.0594 93.2135 37.199 92.512 38.2193C91.8324 39.2395 90.791 40.0535 89.388 40.6613C87.9849 41.2691 86.2749 41.573 84.258 41.573Z" fill="white"/>
<path d="M114.41 23.8599V41.2474H110.497V39.0333C109.839 39.8147 109.017 40.4225 108.03 40.8567C107.044 41.2691 105.98 41.4753 104.84 41.4753C102.495 41.4753 100.642 40.835 99.283 39.5542C97.9457 38.2518 97.2771 36.3307 97.2771 33.791V23.8599H101.388V33.2375C101.388 34.8004 101.738 35.9726 102.44 36.754C103.163 37.5138 104.183 37.8936 105.498 37.8936C106.967 37.8936 108.129 37.4487 108.984 36.5587C109.861 35.647 110.299 34.3445 110.299 32.6514V23.8599H114.41Z" fill="white"/>
<path d="M125.218 41.4753C123.793 41.4753 122.401 41.2908 121.041 40.9218C119.682 40.5528 118.597 40.0861 117.786 39.5217L119.364 36.4284C120.153 36.9494 121.096 37.3727 122.192 37.6983C123.31 38.0022 124.406 38.1541 125.481 38.1541C127.936 38.1541 129.164 37.5138 129.164 36.233C129.164 35.6252 128.846 35.202 128.21 34.9632C127.596 34.7244 126.599 34.4965 125.218 34.2794C123.771 34.0623 122.587 33.8127 121.666 33.5305C120.767 33.2483 119.978 32.7599 119.298 32.0653C118.641 31.3489 118.312 30.3612 118.312 29.1022C118.312 27.4525 119.002 26.1392 120.384 25.1624C121.787 24.1638 123.672 23.6646 126.04 23.6646C127.245 23.6646 128.451 23.8057 129.657 24.0879C130.863 24.3484 131.849 24.7065 132.617 25.1624L131.038 28.2557C129.547 27.3874 127.87 26.9532 126.007 26.9532C124.801 26.9532 123.88 27.1377 123.245 27.5068C122.631 27.8541 122.324 28.3208 122.324 28.9069C122.324 29.5581 122.653 30.0248 123.31 30.307C123.99 30.5675 125.031 30.8171 126.434 31.0559C127.837 31.273 128.988 31.5226 129.887 31.8048C130.786 32.087 131.553 32.5645 132.189 33.2375C132.847 33.9104 133.176 34.8655 133.176 36.1028C133.176 37.7308 132.463 39.0333 131.038 40.0101C129.613 40.9869 127.673 41.4753 125.218 41.4753Z" fill="white"/>
<path d="M146.679 23.6646C148.894 23.6646 150.669 24.3049 152.007 25.5857C153.344 26.8664 154.013 28.7658 154.013 31.2838V41.2474H149.902V31.8048C149.902 30.2853 149.54 29.1456 148.817 28.3859C148.093 27.6044 147.063 27.2137 145.726 27.2137C144.213 27.2137 143.018 27.6696 142.141 28.5813C141.264 29.4713 140.826 30.7628 140.826 32.456V41.2474H136.715V17.0873H140.826V25.8787C141.506 25.1624 142.339 24.6197 143.325 24.2507C144.334 23.8599 145.452 23.6646 146.679 23.6646Z" fill="white"/>
<path d="M159.227 23.8599H163.338V41.2474H159.227V23.8599ZM161.299 20.9946C160.553 20.9946 159.929 20.7667 159.424 20.3108C158.92 19.8333 158.668 19.2472 158.668 18.5525C158.668 17.8579 158.92 17.2827 159.424 16.8268C159.929 16.3493 160.553 16.1105 161.299 16.1105C162.044 16.1105 162.669 16.3384 163.173 16.7943C163.677 17.2284 163.929 17.7819 163.929 18.4549C163.929 19.1712 163.677 19.779 163.173 20.2783C162.691 20.7558 162.066 20.9946 161.299 20.9946Z" fill="white"/>
<path d="M175.878 41.573C174.102 41.573 172.381 41.3234 170.715 40.8241C169.071 40.3249 167.766 39.6628 166.802 38.8379L168.281 35.5493C169.224 36.2873 170.375 36.8951 171.734 37.3727C173.115 37.8285 174.497 38.0565 175.878 38.0565C177.588 38.0565 178.859 37.7851 179.692 37.2424C180.547 36.6998 180.975 35.9834 180.975 35.0934C180.975 34.4422 180.734 33.9104 180.251 33.4979C179.791 33.0638 179.199 32.7273 178.476 32.4886C177.752 32.2498 176.766 31.9784 175.516 31.6745C173.762 31.2621 172.337 30.8497 171.241 30.4372C170.167 30.0248 169.235 29.3844 168.446 28.5161C167.679 27.6261 167.295 26.4322 167.295 24.9345C167.295 23.6754 167.635 22.5358 168.314 21.5156C169.016 20.4736 170.057 19.6487 171.438 19.0409C172.841 18.4331 174.551 18.1292 176.568 18.1292C177.971 18.1292 179.352 18.3029 180.712 18.6502C182.071 18.9975 183.244 19.4968 184.23 20.148L182.882 23.4367C181.874 22.8506 180.821 22.4056 179.725 22.1017C178.629 21.7978 177.566 21.6458 176.535 21.6458C174.847 21.6458 173.587 21.928 172.754 22.4924C171.943 23.0568 171.537 23.8057 171.537 24.7391C171.537 25.3903 171.767 25.9221 172.228 26.3346C172.71 26.747 173.313 27.0726 174.036 27.3114C174.76 27.5502 175.746 27.8215 176.996 28.1254C178.706 28.5161 180.109 28.9286 181.205 29.3627C182.301 29.7752 183.233 30.4155 184 31.2838C184.789 32.1521 185.184 33.3243 185.184 34.8004C185.184 36.0594 184.833 37.199 184.132 38.2193C183.452 39.2395 182.411 40.0535 181.008 40.6613C179.605 41.2691 177.895 41.573 175.878 41.573Z" fill="white"/>
<path d="M216.1 23.8599L209.622 41.2474H205.675L201.137 29.265L196.534 41.2474H192.588L186.142 23.8599H190.023L194.659 36.6889L199.493 23.8599H202.946L207.681 36.754L212.45 23.8599H216.1Z" fill="white"/>
<path d="M225.088 23.6646C227.675 23.6646 229.648 24.2832 231.008 25.5205C232.389 26.7361 233.079 28.5813 233.079 31.0559V41.2474H229.199V39.131C228.695 39.8907 227.971 40.4768 227.029 40.8892C226.108 41.28 224.99 41.4753 223.674 41.4753C222.359 41.4753 221.208 41.2583 220.222 40.8241C219.235 40.3683 218.468 39.7496 217.92 38.9682C217.393 38.165 217.13 37.2641 217.13 36.2656C217.13 34.7027 217.711 33.4545 218.873 32.5211C220.057 31.566 221.91 31.0884 224.431 31.0884H228.969V30.828C228.969 29.6124 228.596 28.6789 227.851 28.0277C227.127 27.3765 226.042 27.0509 224.595 27.0509C223.609 27.0509 222.633 27.2029 221.668 27.5068C220.726 27.8107 219.926 28.2339 219.268 28.7766L217.657 25.8136C218.577 25.119 219.684 24.5871 220.978 24.2181C222.271 23.8491 223.641 23.6646 225.088 23.6646ZM224.529 38.5123C225.56 38.5123 226.47 38.2844 227.259 37.8285C228.07 37.351 228.64 36.678 228.969 35.8098V33.791H224.727C222.359 33.791 221.175 34.5616 221.175 36.1028C221.175 36.8409 221.471 37.4269 222.063 37.8611C222.655 38.2952 223.477 38.5123 224.529 38.5123Z" fill="white"/>
<path d="M248.088 23.6646C249.798 23.6646 251.322 24.0336 252.659 24.7716C254.018 25.5097 255.082 26.5516 255.849 27.8975C256.616 29.2433 257 30.7954 257 32.5537C257 34.312 256.616 35.8749 255.849 37.2424C255.082 38.5883 254.018 39.6302 252.659 40.3683C251.322 41.1063 249.798 41.4753 248.088 41.4753C245.721 41.4753 243.846 40.6939 242.465 39.131V47.5642H238.355V23.8599H242.268V26.1392C242.947 25.3143 243.78 24.6957 244.767 24.2832C245.775 23.8708 246.883 23.6646 248.088 23.6646ZM247.628 37.9913C249.141 37.9913 250.379 37.4921 251.344 36.4935C252.33 35.495 252.824 34.1817 252.824 32.5537C252.824 30.9256 252.33 29.6124 251.344 28.6138C250.379 27.6153 249.141 27.116 247.628 27.116C246.641 27.116 245.754 27.344 244.964 27.7998C244.175 28.2339 243.55 28.8635 243.09 29.6883C242.63 30.5132 242.399 31.4683 242.399 32.5537C242.399 33.639 242.63 34.5942 243.09 35.419C243.55 36.2439 244.175 36.8843 244.964 37.3401C245.754 37.7743 246.641 37.9913 247.628 37.9913Z" fill="white"/>
<defs>
<linearGradient id="paint0_linear_138_1794" x1="22.6577" y1="1.29563" x2="32.3261" y2="34.4956" gradientUnits="userSpaceOnUse">
<stop stop-color="#03B8FF"/>
<stop offset="1" stop-color="#FA52A0"/>
</linearGradient>
<linearGradient id="paint1_linear_138_1794" x1="30.6197" y1="-1.0233" x2="40.2883" y2="32.1769" gradientUnits="userSpaceOnUse">
<stop stop-color="#03B8FF"/>
<stop offset="1" stop-color="#FA52A0"/>
</linearGradient>
<linearGradient id="paint2_linear_138_1794" x1="14.7204" y1="3.60695" x2="24.389" y2="36.8072" gradientUnits="userSpaceOnUse">
<stop stop-color="#03B8FF"/>
<stop offset="1" stop-color="#FA52A0"/>
</linearGradient>
<clipPath id="clip0_138_1794">
<rect width="62.9075" height="62.9075" fill="white"/>
</clipPath>
</defs>
</svg>
