<svg width="21" height="18" viewBox="0 0 21 18" fill="none" xmlns="http://www.w3.org/2000/svg">
<path fill-rule="evenodd" clip-rule="evenodd" d="M12.712 0.312653C13.6222 -0.0347662 14.6172 -0.0942536 15.5623 0.142236C16.3577 0.341247 17.0855 0.741777 17.6772 1.30183C18.4826 1.01949 19.2457 0.626576 19.9442 0.133844L20.3373 0.691171L21 0.852551C20.6895 2.12753 20.0589 3.30009 19.1704 4.26052C19.19 4.43327 19.2001 4.60704 19.2006 4.78108L19.2006 4.78333C19.2006 10.2509 16.5724 14.2408 12.8145 16.241C9.07316 18.2323 4.28075 18.2155 0 15.8373L0.358328 14.5596C2.07179 14.6277 3.76641 14.2497 5.2795 13.4718C3.74957 12.6022 2.67961 11.5459 1.95741 10.4055C1.07043 9.00504 0.733881 7.5191 0.672938 6.17835C0.612131 4.84059 0.82471 3.63336 1.04918 2.76541C1.16183 2.32984 1.27859 1.97542 1.36825 1.72743C1.37257 1.71548 1.37682 1.70379 1.38101 1.69234L1.35795 1.6595L1.53994 1.29553L2.14996 1.60054L2.7081 1.20857C3.56221 2.42478 4.70385 3.41088 6.03133 4.07904C7.16054 4.64742 8.39442 4.97073 9.65225 5.03091V4.81498C9.64019 3.84244 9.9266 2.88953 10.4729 2.08475C11.0201 1.27866 11.8017 0.660072 12.712 0.312653ZM2.39786 3.00058C2.38849 3.03537 2.37912 3.07083 2.36979 3.10694C2.16799 3.88722 1.98272 4.95342 2.03558 6.11642C2.08831 7.27643 2.37696 8.5186 3.10979 9.6757C3.83988 10.8285 5.03678 11.9382 6.9738 12.7991L8.09514 13.2975L7.07985 13.9866C5.8561 14.8173 4.48866 15.3938 3.05819 15.6929C6.25834 16.736 9.53323 16.4422 12.1736 15.0369C15.463 13.2861 17.8362 9.77412 17.8366 4.78457C17.8358 4.57382 17.8155 4.3636 17.776 4.15661L17.7076 3.79876L17.967 3.54295C18.3596 3.15576 18.698 2.72094 18.9755 2.25051C18.5549 2.44001 18.1217 2.60213 17.6786 2.73557L17.2565 2.86265L16.9673 2.53008C16.5113 2.00577 15.9053 1.63416 15.2312 1.4655C14.5571 1.29683 13.8475 1.33926 13.1984 1.58704C12.5492 1.83481 11.9918 2.27599 11.6015 2.85089C11.2112 3.42579 11.0069 4.10668 11.0162 4.80147L11.0164 4.81061L11.0163 6.38455L10.352 6.40178C8.64143 6.44613 6.94648 6.06677 5.41806 5.29746C4.27543 4.72234 3.25239 3.94263 2.39786 3.00058Z" fill="#FB9B20"/>
</svg>
