<svg width="39" height="16" viewBox="0 0 39 16" fill="none" xmlns="http://www.w3.org/2000/svg">
<path d="M35.9207 7.35L32.8707 4.3C32.7207 4.1 32.4707 4 32.2207 4H28.2207C27.6707 4 27.2207 4.45 27.2207 5V14C27.2207 14.55 27.6707 15 28.2207 15H35.2207C35.7707 15 36.2207 14.55 36.2207 14V8.05C36.2207 7.8 36.1207 7.55 35.9207 7.35ZM32.2207 5L35.1707 8H32.2207V5ZM28.2207 14V5H31.2207V8C31.2207 8.55 31.6707 9 32.2207 9H35.2207V14H28.2207Z" fill="#9191A7"/>
<path d="M25.2207 9H24.2207V2C24.2207 1.45 24.6707 1 25.2207 1H32.2207V2H25.2207V9Z" fill="#9191A7"/>
<path d="M11 1V2H13.3L10 5.3L10.7 6L14 2.7V5H15V1H11Z" fill="#9191A7"/>
<path d="M13 13H3V3H9.5V2H3C2.73503 2.00079 2.48113 2.1064 2.29377 2.29377C2.1064 2.48113 2.00079 2.73503 2 3V13C2.00079 13.265 2.1064 13.5189 2.29377 13.7062C2.48113 13.8936 2.73503 13.9992 3 14H13C13.265 13.9992 13.5189 13.8936 13.7062 13.7062C13.8936 13.5189 13.9992 13.265 14 13V6.5H13V13Z" fill="#9191A7"/>
</svg>
