<svg width="20" height="18" viewBox="0 0 20 18" fill="none" xmlns="http://www.w3.org/2000/svg">
<path fill-rule="evenodd" clip-rule="evenodd" d="M12.1788 1.15321C13.013 0.83484 13.9248 0.780326 14.7909 0.997042C15.5197 1.17941 16.1867 1.54645 16.7289 2.05967C17.467 1.80095 18.1663 1.44088 18.8064 0.989352L19.1666 1.50008L19.7739 1.64797C19.4894 2.81634 18.9115 3.89086 18.0973 4.77098C18.1152 4.92929 18.1244 5.08853 18.125 5.24801L18.125 5.25008C18.125 10.2605 15.7165 13.9168 12.2728 15.7497C8.8443 17.5746 4.45261 17.5591 0.529785 15.3798L0.858152 14.2089C2.42835 14.2714 3.98127 13.9249 5.36785 13.2121C3.96584 12.4152 2.98535 11.4472 2.32353 10.4022C1.51071 9.1188 1.2023 7.7571 1.14646 6.52846C1.09073 5.30255 1.28554 4.19627 1.49124 3.40088C1.59447 3.00174 1.70147 2.67694 1.78363 2.44969C1.78759 2.43875 1.79149 2.42803 1.79533 2.41753L1.77419 2.38744L1.94096 2.0539L2.49998 2.33341L3.01145 1.97422C3.79415 3.08873 4.84033 3.99238 6.05682 4.60468C7.09161 5.12553 8.22232 5.4218 9.37498 5.47696V5.27909C9.36392 4.38786 9.62638 3.51463 10.127 2.77714C10.6285 2.03845 11.3447 1.47158 12.1788 1.15321ZM2.72715 3.61639C2.71856 3.64827 2.70998 3.68077 2.70142 3.71386C2.5165 4.42889 2.34672 5.40594 2.39517 6.4717C2.44349 7.53472 2.708 8.67303 3.37955 9.73338C4.0486 10.7898 5.14542 11.8067 6.92048 12.5956L7.94806 13.0523L7.01766 13.6839C5.89624 14.4451 4.64314 14.9733 3.33227 15.2475C6.26484 16.2034 9.26591 15.9341 11.6855 14.6463C14.6999 13.0419 16.8746 9.82357 16.875 5.25121C16.8743 5.05809 16.8557 4.86545 16.8194 4.67576L16.7567 4.34784L16.9945 4.11341C17.3542 3.7586 17.6644 3.36014 17.9187 2.92904C17.5333 3.10269 17.1363 3.25126 16.7302 3.37354L16.3434 3.48999L16.0784 3.18523C15.6605 2.70476 15.1052 2.36422 14.4875 2.20966C13.8698 2.0551 13.2195 2.09398 12.6246 2.32104C12.0297 2.5481 11.5189 2.95238 11.1612 3.47921C10.8036 4.00604 10.6164 4.63 10.6249 5.2667L10.625 5.27508L10.625 6.71742L10.0162 6.7332C8.44867 6.77385 6.89544 6.4262 5.49482 5.72122C4.44773 5.19419 3.51023 4.47967 2.72715 3.61639Z" fill="#FED519"/>
</svg>
