<svg width="30" height="32" viewBox="0 0 30 32" fill="none" xmlns="http://www.w3.org/2000/svg">
<path d="M13.022 1.12851C13.8496 0.842975 14.8211 1.04523 15.4808 1.61631C15.9965 2.15169 16.5002 2.77036 16.5002 3.55559C16.5242 5.49487 16.5002 7.44605 16.5122 9.39723C17.8196 8.55252 19.7746 8.82616 20.6502 10.1587C21.3098 9.64708 22.1254 9.19498 23.001 9.38534C23.9125 9.51621 24.5482 10.242 25.04 10.9558C25.7476 10.5989 26.6232 10.5275 27.3548 10.8963C28.0624 11.2175 28.5542 11.9314 28.6022 12.7047C28.7461 15.1199 28.95 17.547 28.986 19.9741C29.0339 22.4725 28.962 24.9829 28.7221 27.4813C28.6262 28.6116 28.2064 29.8013 27.2468 30.4914C26.3473 31.1577 25.1599 31.1933 24.0804 31.1339C20.7221 31.122 17.3638 31.1339 13.9935 31.1339C13.094 31.1577 12.1704 31.1814 11.3188 30.8483C10.7071 30.5747 10.2874 30.0512 9.8076 29.611C7.34884 27.291 4.90207 24.971 2.43131 22.6629C1.67569 22.0561 1.052 21.1995 1.00402 20.2001C0.968041 19.3792 1.17194 18.5226 1.67569 17.8563C2.08348 17.3209 2.79113 17.0949 3.4388 17.2257C4.97403 17.3923 6.18542 18.4274 7.4208 19.2364C8.65618 20.3548 9.87957 21.485 11.1149 22.6034C11.1149 16.3334 11.1149 10.0635 11.1149 3.80544C11.103 3.22246 11.2349 2.6038 11.6307 2.16359C12.0265 1.73528 12.4583 1.30698 13.022 1.12851Z" fill="black" stroke="black" stroke-width="0.09375" stroke-miterlimit="10" stroke-linejoin="round"/>
<path d="M13.3575 2.34219C13.0097 2.52066 12.6739 2.7705 12.506 3.12742C12.3261 3.60332 12.374 4.12681 12.362 4.6265C12.374 10.8132 12.362 16.9998 12.374 23.1865C12.362 23.5791 12.41 23.9955 12.2781 24.3763C12.2301 24.5666 12.0142 24.6261 11.8463 24.6618C11.3905 24.5666 11.0787 24.2097 10.7429 23.9242C9.31557 22.6392 7.88829 21.3662 6.44901 20.0932C5.62142 19.4269 4.69789 18.8915 3.70239 18.5227C3.35456 18.368 2.89879 18.3799 2.65891 18.7131C2.04722 19.5578 2.22713 20.807 3.00674 21.4733C5.77735 24.0907 8.53596 26.7082 11.2946 29.3256C11.9902 29.9562 12.9977 29.9205 13.8853 29.8848C17.5554 29.8967 21.2376 29.8729 24.9197 29.9086C25.5554 29.8729 26.2031 29.6587 26.6589 29.1947C27.1386 28.7188 27.3665 28.0645 27.4625 27.4101C27.9662 22.5203 27.7023 17.5828 27.3305 12.693C27.2226 12.0505 26.359 11.6698 25.7953 12.0267C25.6394 12.1338 25.4235 12.229 25.3995 12.455C25.2196 13.2402 25.2196 14.0612 25.2316 14.8702C25.2556 15.12 25.1476 15.3461 25.0517 15.5721C24.8957 15.6316 24.7398 15.703 24.5959 15.7625C24.44 15.6911 24.2721 15.6197 24.1281 15.5246C23.9482 15.358 23.9842 15.0844 23.9722 14.8702C23.9722 13.9541 23.9722 13.038 23.9722 12.1219C23.9842 11.7412 23.9242 11.3248 23.6364 11.0392C23.2766 10.7537 22.7968 10.48 22.317 10.6228C21.7893 10.7418 21.3815 11.1939 21.2496 11.7055C21.1176 12.4907 21.3815 13.3354 21.0337 14.085C20.7698 14.1326 20.5059 14.2634 20.2541 14.1445C20.0502 14.0255 19.9662 13.7756 19.9662 13.5615C19.9422 12.9666 19.9782 12.3717 19.9542 11.7769C19.9302 11.1582 19.5344 10.5633 18.9587 10.3135C18.2151 9.95656 17.1836 10.1945 16.7758 10.9321C16.1761 11.8839 16.7998 13.0856 16.332 14.085C16.0322 14.1801 15.6964 14.2396 15.4205 14.0493C15.2526 13.847 15.2526 13.5615 15.2526 13.3116C15.2526 10.2183 15.2526 7.12496 15.2526 4.03163C15.2526 3.60332 15.2046 3.11553 14.8928 2.7824C14.5329 2.36599 13.8973 2.09235 13.3575 2.34219Z" fill="white" stroke="black" stroke-width="0.09375" stroke-miterlimit="10" stroke-linejoin="round"/>
</svg>
