<svg width="180" height="43" viewBox="0 0 180 43" fill="none" xmlns="http://www.w3.org/2000/svg">
<g clip-path="url(#clip0_138_1791)">
<path d="M56.9301 43L28.508 0L-0.00164795 43H39.7214L28.5112 26.5941L22.9516 35.1202H17.0378L28.5112 17.9752L45.1025 42.9984L56.9301 43Z" fill="url(#paint0_linear_138_1791)"/>
<path d="M87.2952 22.385C86.9155 22.385 86.7528 22.5507 86.7528 22.9484V26.329C86.7528 26.7234 86.9123 26.8924 87.2952 26.8924H98.089V32.8085C95.98 36.4078 92.1768 38.4926 87.1325 38.4926C79.0506 38.4926 74.0605 33.0836 74.0605 22.7164C74.0605 12.4055 79.9185 6.94022 86.59 6.94022C91.7971 6.94022 96.0279 9.08127 97.3839 14.2649C97.4072 14.4252 97.4864 14.5712 97.6063 14.675C97.7263 14.7788 97.8787 14.8334 98.0348 14.8283H101.506C101.886 14.8283 102.103 14.6626 102.103 14.2649C100.638 6.37678 94.1263 2.43274 86.59 2.43274C78.1349 2.43274 69.2874 9.19395 69.2874 22.7164C69.2874 36.0698 77.634 43 87.3494 43C90.2753 43.0919 93.1739 42.3916 95.7605 40.9679C98.3471 39.5443 100.533 37.4463 102.103 34.8799C102.491 34.241 102.68 33.4935 102.645 32.7389V22.9351C102.645 22.5407 102.486 22.3717 102.103 22.3717L87.2952 22.385ZM143.597 3.55961C143.597 3.1652 143.437 2.99617 143.054 2.99617H137.901C137.717 2.97694 137.532 3.02183 137.375 3.12381C137.218 3.22579 137.098 3.37909 137.034 3.55961L126.505 28.6325L115.976 3.55961C115.911 3.37909 115.791 3.22579 115.634 3.12381C115.477 3.02183 115.292 2.97694 115.108 2.99617H109.955C109.575 2.99617 109.412 3.16189 109.412 3.55961V41.8732C109.412 42.2676 109.572 42.4366 109.955 42.4366H113.426C113.806 42.4366 113.969 42.2709 113.969 41.8732V10.3772L124.613 35.3373C124.666 35.4869 124.762 35.6158 124.888 35.7065C125.014 35.7973 125.164 35.8454 125.318 35.8444H127.711C127.864 35.8454 128.014 35.7973 128.14 35.7065C128.266 35.6158 128.363 35.4869 128.416 35.3373L139.047 10.3772V41.8732C139.047 42.2676 139.206 42.4366 139.589 42.4366H143.061C143.44 42.4366 143.603 42.2709 143.603 41.8732L143.597 3.55961ZM155.421 3.55961C155.041 3.05252 155.041 2.99617 154.662 2.99617H150.485C150.106 2.99617 149.943 3.27789 150.106 3.55961L161.605 21.6459L148.695 41.8732C148.536 42.1549 148.695 42.4366 149.075 42.4366H153.143C153.523 42.4366 153.631 42.3803 154.011 41.8732L164.317 25.7589L174.629 41.8732C175.008 42.3803 175.117 42.4366 175.496 42.4366H179.564C179.944 42.4366 180.107 42.1549 179.944 41.8732L167.029 21.6459L178.528 3.55961C178.687 3.27789 178.528 2.99617 178.148 2.99617H173.971C173.592 2.99617 173.592 3.05252 173.212 3.55961L164.317 17.4798L155.421 3.55961Z" fill="white"/>
</g>
<defs>
<linearGradient id="paint0_linear_138_1791" x1="30.5138" y1="1.118" x2="11.6377" y2="47.4836" gradientUnits="userSpaceOnUse">
<stop stop-color="#03D1CF" stop-opacity="0.988"/>
<stop offset="1" stop-color="#4E09F8"/>
</linearGradient>
<clipPath id="clip0_138_1791">
<rect width="180" height="43" fill="white"/>
</clipPath>
</defs>
</svg>
