<svg width="96" height="84" viewBox="0 0 96 84" fill="none" xmlns="http://www.w3.org/2000/svg">
<rect x="0.129395" y="0.290039" width="95.8704" height="82.7243" rx="8" fill="#623AFF" fill-opacity="0.3"/>
<path d="M73.0449 56.3599C71.7669 53.7479 69.9123 51.3753 67.5844 49.3742C65.2636 47.3674 62.5144 45.7674 59.4886 44.6625C59.4615 44.6508 59.4344 44.645 59.4073 44.6333C63.628 42.0027 66.3717 37.7177 66.3717 32.8833C66.3717 24.8746 58.8518 18.3857 49.5703 18.3857C40.2889 18.3857 32.7689 24.8746 32.7689 32.8833C32.7689 37.7177 35.5127 42.0027 39.7334 44.6391C39.7063 44.6508 39.6792 44.6567 39.6521 44.6684C36.617 45.7732 33.8935 47.3574 31.5562 49.3801C29.2305 51.3826 27.3762 53.7549 26.0958 56.3658C24.8378 58.9219 24.1594 61.6623 24.0972 64.4388C24.0954 64.5012 24.1081 64.5633 24.1345 64.6214C24.1609 64.6795 24.2006 64.7324 24.2511 64.7771C24.3016 64.8218 24.362 64.8572 24.4286 64.8815C24.4953 64.9057 24.5669 64.9182 24.6392 64.9182H28.7041C29.0021 64.9182 29.2393 64.7136 29.246 64.4622C29.3815 59.9492 31.4817 55.7227 35.1943 52.5193C39.0356 49.2047 44.137 47.3808 49.5703 47.3808C55.0037 47.3808 60.1051 49.2047 63.9464 52.5193C67.659 55.7227 69.7591 59.9492 69.8946 64.4622C69.9014 64.7194 70.1385 64.9182 70.4366 64.9182H74.5015C74.5738 64.9182 74.6454 64.9057 74.7121 64.8815C74.7787 64.8572 74.8391 64.8218 74.8896 64.7771C74.9401 64.7324 74.9797 64.6795 75.0061 64.6214C75.0326 64.5633 75.0453 64.5012 75.0434 64.4388C74.9757 61.6445 74.305 58.9262 73.0449 56.3599V56.3599ZM49.5703 42.938C46.4607 42.938 43.534 41.8916 41.3322 39.9917C39.1304 38.0919 37.9177 35.5665 37.9177 32.8833C37.9177 30.2001 39.1304 27.6747 41.3322 25.7748C43.534 23.8749 46.4607 22.8285 49.5703 22.8285C52.6799 22.8285 55.6066 23.8749 57.8084 25.7748C60.0102 27.6747 61.2229 30.2001 61.2229 32.8833C61.2229 35.5665 60.0102 38.0919 57.8084 39.9917C55.6066 41.8916 52.6799 42.938 49.5703 42.938Z" fill="#0D0D0D"/>
</svg>
