<svg width="96" height="73" viewBox="0 0 96 73" fill="none" xmlns="http://www.w3.org/2000/svg">
<rect x="0.128906" y="0.533203" width="95.8704" height="71.8318" rx="8" fill="#623AFF" fill-opacity="0.3"/>
<path d="M73.0435 49.2201C71.7656 46.952 69.911 44.8918 67.5831 43.1542C65.2623 41.4117 62.5131 40.0223 59.4872 39.0629C59.4601 39.0528 59.433 39.0477 59.4059 39.0376C63.6266 36.7533 66.3704 33.0326 66.3704 28.8347C66.3704 21.8805 58.8504 16.2461 49.569 16.2461C40.2876 16.2461 32.7676 21.8805 32.7676 28.8347C32.7676 33.0326 35.5114 36.7533 39.732 39.0426C39.7049 39.0528 39.6778 39.0579 39.6507 39.068C36.6156 40.0274 33.8922 41.403 31.5549 43.1593C29.2292 44.8982 27.3749 46.9581 26.0944 49.2252C24.8365 51.4447 24.1581 53.8243 24.0959 56.2352C24.0941 56.2894 24.1067 56.3433 24.1332 56.3938C24.1596 56.4442 24.1992 56.4902 24.2497 56.529C24.3003 56.5678 24.3606 56.5986 24.4273 56.6196C24.4939 56.6407 24.5655 56.6515 24.6379 56.6515H28.7027C29.0008 56.6515 29.2379 56.4738 29.2447 56.2555C29.3802 52.3368 31.4804 48.6668 35.1929 45.8852C39.0342 43.007 44.1356 41.4233 49.569 41.4233C55.0023 41.4233 60.1037 43.007 63.945 45.8852C67.6576 48.6668 69.7578 52.3368 69.8933 56.2555C69.9001 56.4789 70.1372 56.6515 70.4353 56.6515H74.5001C74.5724 56.6515 74.6441 56.6407 74.7107 56.6196C74.7774 56.5986 74.8377 56.5678 74.8882 56.529C74.9387 56.4902 74.9784 56.4442 75.0048 56.3938C75.0312 56.3433 75.0439 56.2894 75.0421 56.2352C74.9744 53.8089 74.3037 51.4485 73.0435 49.2201V49.2201ZM49.569 37.5655C46.4594 37.5655 43.5327 36.6569 41.3309 35.0072C39.1291 33.3575 37.9164 31.1646 37.9164 28.8347C37.9164 26.5048 39.1291 24.3119 41.3309 22.6622C43.5327 21.0125 46.4594 20.1039 49.569 20.1039C52.6786 20.1039 55.6053 21.0125 57.8071 22.6622C60.0089 24.3119 61.2216 26.5048 61.2216 28.8347C61.2216 31.1646 60.0089 33.3575 57.8071 35.0072C55.6053 36.6569 52.6786 37.5655 49.569 37.5655Z" fill="#0D0D0D"/>
</svg>
