<svg width="20" height="20" viewBox="0 0 20 20" fill="none" xmlns="http://www.w3.org/2000/svg">
<rect width="20" height="20" rx="10" fill="#FFA621" fill-opacity="0.2"/>
<path d="M12.3583 9.7064C12.9676 9.39483 13.3554 8.8409 13.2653 7.92002C13.1476 6.65987 12.1127 6.23751 10.7418 6.11983V4.375H9.67548V6.07136C9.39852 6.07136 9.11463 6.07828 8.83077 6.0852V4.375H7.76448V6.11983C7.37244 6.13167 6.91585 6.12589 5.625 6.11983V7.25533C6.46686 7.24043 6.90858 7.18634 7.00978 7.72614V12.5036C6.94551 12.9319 6.60276 12.8702 5.83963 12.8568L5.62502 14.1238C7.56918 14.1238 7.7645 14.1307 7.7645 14.1307V15.625H8.83079V14.1515C9.12157 14.1584 9.40546 14.1584 9.67551 14.1584V15.625H10.7418V14.1307C12.5281 14.0338 13.7223 13.5838 13.8816 11.9013C14.0062 10.5511 13.3692 9.94872 12.3583 9.7064ZM8.85155 7.33149C9.45393 7.33149 11.3372 7.14457 11.3372 8.39778C11.3372 9.59561 9.45395 9.45712 8.85155 9.45712V7.33149ZM8.85155 12.8637V10.5234C9.57164 10.5234 11.7767 10.3226 11.7767 11.6936C11.7767 13.016 9.57164 12.8637 8.85155 12.8637Z" fill="#FFC163"/>
</svg>
