<svg width="66" height="91" viewBox="0 0 66 91" fill="none" xmlns="http://www.w3.org/2000/svg">
<rect x="0.762695" y="0.67627" width="64.7773" height="89.5677" rx="8" fill="#623AFF" fill-opacity="0.3"/>
<path d="M50.0299 61.3847C49.1664 58.5565 47.9133 55.9876 46.3404 53.821C44.7723 51.6482 42.9147 49.9159 40.8702 48.7196C40.8519 48.7069 40.8336 48.7006 40.8153 48.6879C43.6671 45.8397 45.521 41.2003 45.521 35.9659C45.521 27.2946 40.4399 20.269 34.1687 20.269C27.8975 20.269 22.8164 27.2946 22.8164 35.9659C22.8164 41.2003 24.6703 45.8397 27.5221 48.6943C27.5038 48.7069 27.4855 48.7132 27.4672 48.7259C25.4164 49.9222 23.5763 51.6374 21.997 53.8274C20.4256 55.9956 19.1727 58.5641 18.3075 61.391C17.4576 64.1585 16.9992 67.1257 16.9571 70.1318C16.9559 70.1994 16.9645 70.2666 16.9823 70.3295C17.0002 70.3924 17.027 70.4497 17.0611 70.4981C17.0952 70.5465 17.136 70.5849 17.1811 70.6111C17.2261 70.6374 17.2745 70.6509 17.3233 70.6509H20.0699C20.2713 70.6509 20.4315 70.4293 20.4361 70.1572C20.5276 65.2709 21.9467 60.6948 24.4552 57.2263C27.0506 53.6375 30.4975 51.6627 34.1687 51.6627C37.8399 51.6627 41.2868 53.6375 43.8823 57.2263C46.3907 60.6948 47.8098 65.2709 47.9013 70.1572C47.9059 70.4357 48.0661 70.6509 48.2675 70.6509H51.0141C51.0629 70.6509 51.1113 70.6374 51.1564 70.6111C51.2014 70.5849 51.2422 70.5465 51.2763 70.4981C51.3104 70.4497 51.3372 70.3924 51.3551 70.3295C51.3729 70.2666 51.3815 70.1994 51.3803 70.1318C51.3345 67.1064 50.8813 64.1632 50.0299 61.3847V61.3847ZM34.1687 46.8524C32.0676 46.8524 30.0901 45.7195 28.6024 43.6624C27.1147 41.6054 26.2953 38.8711 26.2953 35.9659C26.2953 33.0607 27.1147 30.3264 28.6024 28.2694C30.0901 26.2123 32.0676 25.0794 34.1687 25.0794C36.2698 25.0794 38.2473 26.2123 39.735 28.2694C41.2227 30.3264 42.0421 33.0607 42.0421 35.9659C42.0421 38.8711 41.2227 41.6054 39.735 43.6624C38.2473 45.7195 36.2698 46.8524 34.1687 46.8524Z" fill="#0D0D0D"/>
</svg>
