<svg width="31" height="150" viewBox="0 0 31 150" fill="none" xmlns="http://www.w3.org/2000/svg">
<rect x="0.355469" y="0.102539" width="30.2294" height="149.257" rx="8" fill="#623AFF" fill-opacity="0.3"/>
<path d="M23.3466 101.269C22.9436 96.5558 22.3589 92.2749 21.6248 88.6645C20.893 85.0437 20.0262 82.1569 19.0721 80.1634C19.0635 80.1423 19.055 80.1317 19.0465 80.1106C20.3773 75.3643 21.2425 67.6331 21.2425 58.9104C21.2425 44.4605 18.8713 32.7529 15.9447 32.7529C13.0181 32.7529 10.647 44.4605 10.647 58.9104C10.647 67.6331 11.5121 75.3643 12.843 80.1212C12.8344 80.1423 12.8259 80.1528 12.8173 80.1739C11.8603 82.1674 11.0016 85.0257 10.2646 88.6751C9.53126 92.2883 8.94658 96.5684 8.54283 101.279C8.14618 105.891 7.93227 110.836 7.91265 115.845C7.91208 115.958 7.91608 116.07 7.92441 116.174C7.93275 116.279 7.94524 116.375 7.96117 116.455C7.9771 116.536 7.99613 116.6 8.01715 116.644C8.03816 116.688 8.06074 116.71 8.08355 116.71H9.36526C9.45925 116.71 9.53402 116.341 9.53615 115.887C9.57888 107.745 10.2411 100.119 11.4117 94.339C12.6229 88.3587 14.2315 85.0679 15.9447 85.0679C17.6579 85.0679 19.2665 88.3587 20.4777 94.339C21.6483 100.119 22.3106 107.745 22.3533 115.887C22.3554 116.351 22.4302 116.71 22.5242 116.71H23.8059C23.8287 116.71 23.8513 116.688 23.8723 116.644C23.8933 116.6 23.9123 116.536 23.9283 116.455C23.9442 116.375 23.9567 116.279 23.965 116.174C23.9733 116.07 23.9773 115.958 23.9768 115.845C23.9554 110.803 23.7439 105.899 23.3466 101.269V101.269ZM15.9447 77.0519C14.9642 77.0519 14.0414 75.1639 13.3471 71.736C12.6528 68.3081 12.2705 63.7516 12.2705 58.9104C12.2705 54.0692 12.6528 49.5127 13.3471 46.0848C14.0414 42.6569 14.9642 40.7689 15.9447 40.7689C16.9252 40.7689 17.8481 42.6569 18.5423 46.0848C19.2366 49.5127 19.619 54.0692 19.619 58.9104C19.619 63.7516 19.2366 68.3081 18.5423 71.736C17.8481 75.1639 16.9252 77.0519 15.9447 77.0519Z" fill="#0D0D0D"/>
</svg>
