<svg width="96" height="73" viewBox="0 0 96 73" fill="none" xmlns="http://www.w3.org/2000/svg">
<rect x="0.128906" y="0.532715" width="95.8704" height="71.8318" rx="8" fill="#623AFF" fill-opacity="0.3"/>
<path d="M73.0445 49.2201C71.7665 46.952 69.9119 44.8918 67.5841 43.1542C65.2633 41.4117 62.514 40.0223 59.4882 39.0629C59.4611 39.0528 59.434 39.0477 59.4069 39.0376C63.6276 36.7533 66.3714 33.0326 66.3714 28.8347C66.3714 21.8805 58.8514 16.2461 49.57 16.2461C40.2885 16.2461 32.7685 21.8805 32.7685 28.8347C32.7685 33.0326 35.5123 36.7533 39.733 39.0426C39.7059 39.0528 39.6788 39.0579 39.6517 39.068C36.6166 40.0274 33.8932 41.403 31.5559 43.1593C29.2302 44.8982 27.3759 46.9581 26.0954 49.2252C24.8375 51.4447 24.1591 53.8243 24.0968 56.2352C24.095 56.2894 24.1077 56.3433 24.1341 56.3938C24.1606 56.4442 24.2002 56.4902 24.2507 56.529C24.3012 56.5678 24.3616 56.5986 24.4282 56.6196C24.4949 56.6407 24.5665 56.6515 24.6388 56.6515H28.7037C29.0018 56.6515 29.2389 56.4738 29.2457 56.2555C29.3812 52.3368 31.4813 48.6668 35.1939 45.8852C39.0352 43.007 44.1366 41.4233 49.57 41.4233C55.0033 41.4233 60.1047 43.007 63.946 45.8852C67.6586 48.6668 69.7588 52.3368 69.8943 56.2555C69.901 56.4789 70.1381 56.6515 70.4362 56.6515H74.5011C74.5734 56.6515 74.645 56.6407 74.7117 56.6196C74.7783 56.5986 74.8387 56.5678 74.8892 56.529C74.9397 56.4902 74.9794 56.4442 75.0058 56.3938C75.0322 56.3433 75.0449 56.2894 75.0431 56.2352C74.9753 53.8089 74.3046 51.4485 73.0445 49.2201V49.2201ZM49.57 37.5655C46.4603 37.5655 43.5336 36.6569 41.3318 35.0072C39.1301 33.3575 37.9174 31.1646 37.9174 28.8347C37.9174 26.5048 39.1301 24.3119 41.3318 22.6622C43.5336 21.0125 46.4603 20.1039 49.57 20.1039C52.6796 20.1039 55.6063 21.0125 57.8081 22.6622C60.0099 24.3119 61.2226 26.5048 61.2226 28.8347C61.2226 31.1646 60.0099 33.3575 57.8081 35.0072C55.6063 36.6569 52.6796 37.5655 49.57 37.5655Z" fill="#0D0D0D"/>
</svg>
