<svg width="96" height="73" viewBox="0 0 96 73" fill="none" xmlns="http://www.w3.org/2000/svg">
<rect x="0.128906" y="0.533203" width="95.8704" height="71.8318" rx="8" fill="#623AFF" fill-opacity="0.3"/>
<path d="M73.0444 49.2201C71.7664 46.952 69.9118 44.8918 67.5839 43.1542C65.2631 41.4117 62.5139 40.0223 59.4881 39.0629C59.461 39.0528 59.4339 39.0477 59.4068 39.0376C63.6275 36.7533 66.3713 33.0326 66.3713 28.8347C66.3713 21.8805 58.8513 16.2461 49.5698 16.2461C40.2884 16.2461 32.7684 21.8805 32.7684 28.8347C32.7684 33.0326 35.5122 36.7533 39.7329 39.0426C39.7058 39.0528 39.6787 39.0579 39.6516 39.068C36.6165 40.0274 33.893 41.403 31.5557 43.1593C29.23 44.8982 27.3757 46.9581 26.0953 49.2252C24.8374 51.4447 24.1589 53.8243 24.0967 56.2352C24.0949 56.2894 24.1076 56.3433 24.134 56.3938C24.1605 56.4442 24.2001 56.4902 24.2506 56.529C24.3011 56.5678 24.3615 56.5986 24.4281 56.6196C24.4948 56.6407 24.5664 56.6515 24.6387 56.6515H28.7036C29.0017 56.6515 29.2388 56.4738 29.2455 56.2555C29.381 52.3368 31.4812 48.6668 35.1938 45.8852C39.0351 43.007 44.1365 41.4233 49.5698 41.4233C55.0032 41.4233 60.1046 43.007 63.9459 45.8852C67.6585 48.6668 69.7586 52.3368 69.8941 56.2555C69.9009 56.4789 70.138 56.6515 70.4361 56.6515H74.501C74.5733 56.6515 74.6449 56.6407 74.7116 56.6196C74.7782 56.5986 74.8386 56.5678 74.8891 56.529C74.9396 56.4902 74.9792 56.4442 75.0057 56.3938C75.0321 56.3433 75.0448 56.2894 75.043 56.2352C74.9752 53.8089 74.3045 51.4485 73.0444 49.2201V49.2201ZM49.5698 37.5655C46.4602 37.5655 43.5335 36.6569 41.3317 35.0072C39.1299 33.3575 37.9172 31.1646 37.9172 28.8347C37.9172 26.5048 39.1299 24.3119 41.3317 22.6622C43.5335 21.0125 46.4602 20.1039 49.5698 20.1039C52.6795 20.1039 55.6062 21.0125 57.808 22.6622C60.0098 24.3119 61.2224 26.5048 61.2224 28.8347C61.2224 31.1646 60.0098 33.3575 57.808 35.0072C55.6062 36.6569 52.6795 37.5655 49.5698 37.5655Z" fill="#0D0D0D"/>
</svg>
