<svg width="66" height="91" viewBox="0 0 66 91" fill="none" xmlns="http://www.w3.org/2000/svg">
<rect x="0.763184" y="0.67627" width="64.7773" height="89.5677" rx="8" fill="#623AFF" fill-opacity="0.3"/>
<path d="M50.0304 61.3847C49.1669 58.5565 47.9138 55.9876 46.3409 53.821C44.7728 51.6482 42.9152 49.9159 40.8707 48.7196C40.8524 48.7069 40.8341 48.7006 40.8158 48.6879C43.6676 45.8397 45.5215 41.2003 45.5215 35.9659C45.5215 27.2946 40.4404 20.269 34.1692 20.269C27.898 20.269 22.8169 27.2946 22.8169 35.9659C22.8169 41.2003 24.6708 45.8397 27.5226 48.6943C27.5043 48.7069 27.486 48.7132 27.4677 48.7259C25.4169 49.9222 23.5768 51.6374 21.9975 53.8274C20.4261 55.9956 19.1732 58.5641 18.308 61.391C17.4581 64.1585 16.9997 67.1257 16.9576 70.1318C16.9564 70.1994 16.965 70.2666 16.9828 70.3295C17.0007 70.3924 17.0275 70.4497 17.0616 70.4981C17.0957 70.5465 17.1365 70.5849 17.1815 70.6111C17.2266 70.6374 17.275 70.6509 17.3238 70.6509H20.0704C20.2718 70.6509 20.432 70.4293 20.4366 70.1572C20.5281 65.2709 21.9472 60.6948 24.4556 57.2263C27.0511 53.6375 30.498 51.6627 34.1692 51.6627C37.8404 51.6627 41.2873 53.6375 43.8827 57.2263C46.3912 60.6948 47.8103 65.2709 47.9018 70.1572C47.9064 70.4357 48.0666 70.6509 48.268 70.6509H51.0146C51.0634 70.6509 51.1118 70.6374 51.1568 70.6111C51.2019 70.5849 51.2427 70.5465 51.2768 70.4981C51.3109 70.4497 51.3377 70.3924 51.3556 70.3295C51.3734 70.2666 51.382 70.1994 51.3808 70.1318C51.335 67.1064 50.8818 64.1632 50.0304 61.3847V61.3847ZM34.1692 46.8524C32.0681 46.8524 30.0906 45.7195 28.6029 43.6624C27.1152 41.6054 26.2958 38.8711 26.2958 35.9659C26.2958 33.0607 27.1152 30.3264 28.6029 28.2694C30.0906 26.2123 32.0681 25.0794 34.1692 25.0794C36.2703 25.0794 38.2478 26.2123 39.7355 28.2694C41.2232 30.3264 42.0426 33.0607 42.0426 35.9659C42.0426 38.8711 41.2232 41.6054 39.7355 43.6624C38.2478 45.7195 36.2703 46.8524 34.1692 46.8524Z" fill="#0D0D0D"/>
</svg>
