<svg width="66" height="91" viewBox="0 0 66 91" fill="none" xmlns="http://www.w3.org/2000/svg">
<rect x="0.763123" y="0.67627" width="64.7773" height="89.5677" rx="8" fill="#623AFF" fill-opacity="0.3"/>
<path d="M50.0303 61.3847C49.1668 58.5565 47.9137 55.9876 46.3408 53.821C44.7727 51.6482 42.9151 49.9159 40.8707 48.7196C40.8523 48.7069 40.834 48.7006 40.8157 48.6879C43.6675 45.8397 45.5214 41.2003 45.5214 35.9659C45.5214 27.2946 40.4404 20.269 34.1691 20.269C27.8979 20.269 22.8168 27.2946 22.8168 35.9659C22.8168 41.2003 24.6707 45.8397 27.5225 48.6943C27.5042 48.7069 27.4859 48.7132 27.4676 48.7259C25.4169 49.9222 23.5767 51.6374 21.9974 53.8274C20.426 55.9956 19.1731 58.5641 18.3079 61.391C17.458 64.1585 16.9996 67.1257 16.9576 70.1318C16.9564 70.1994 16.9649 70.2666 16.9828 70.3295C17.0006 70.3924 17.0274 70.4497 17.0615 70.4981C17.0957 70.5465 17.1365 70.5849 17.1815 70.6111C17.2265 70.6374 17.2749 70.6509 17.3238 70.6509H20.0703C20.2717 70.6509 20.4319 70.4293 20.4365 70.1572C20.5281 65.2709 21.9471 60.6948 24.4556 57.2263C27.0511 53.6375 30.4979 51.6627 34.1691 51.6627C37.8403 51.6627 41.2872 53.6375 43.8827 57.2263C46.3912 60.6948 47.8102 65.2709 47.9018 70.1572C47.9063 70.4357 48.0666 70.6509 48.268 70.6509H51.0145C51.0634 70.6509 51.1117 70.6374 51.1568 70.6111C51.2018 70.5849 51.2426 70.5465 51.2767 70.4981C51.3109 70.4497 51.3376 70.3924 51.3555 70.3295C51.3733 70.2666 51.3819 70.1994 51.3807 70.1318C51.3349 67.1064 50.8817 64.1632 50.0303 61.3847V61.3847ZM34.1691 46.8524C32.068 46.8524 30.0905 45.7195 28.6028 43.6624C27.1151 41.6054 26.2958 38.8711 26.2958 35.9659C26.2958 33.0607 27.1151 30.3264 28.6028 28.2694C30.0905 26.2123 32.068 25.0794 34.1691 25.0794C36.2702 25.0794 38.2477 26.2123 39.7354 28.2694C41.2231 30.3264 42.0425 33.0607 42.0425 35.9659C42.0425 38.8711 41.2231 41.6054 39.7354 43.6624C38.2477 45.7195 36.2702 46.8524 34.1691 46.8524Z" fill="#0D0D0D"/>
</svg>
