<svg width="30" height="29" viewBox="0 0 30 29" fill="none" xmlns="http://www.w3.org/2000/svg">
<rect width="30" height="29" rx="14.5" fill="#FFA621" fill-opacity="0.2"/>
<path d="M18.5375 14.0743C19.4514 13.6225 20.033 12.8193 19.898 11.484C19.7214 9.65681 18.169 9.04439 16.1127 8.87375V6.34375H14.5132V8.80346C14.0978 8.80346 13.6719 8.8135 13.2462 8.82354V6.34375H11.6467V8.87375C11.0587 8.89092 10.3738 8.88254 8.4375 8.87375V10.5202C9.70029 10.4986 10.3629 10.4202 10.5147 11.2029V18.1303C10.4183 18.7513 9.90414 18.6619 8.75944 18.6423L8.43753 20.4796C11.3538 20.4796 11.6467 20.4896 11.6467 20.4896V22.6562H13.2462V20.5197C13.6824 20.5297 14.1082 20.5297 14.5133 20.5297V22.6562H16.1127V20.4896C18.7922 20.349 20.5835 19.6965 20.8224 17.2568C21.0093 15.2991 20.0538 14.4256 18.5375 14.0743ZM13.2773 10.6307C14.1809 10.6307 17.0058 10.3596 17.0058 12.1768C17.0058 13.9136 14.1809 13.7128 13.2773 13.7128V10.6307ZM13.2773 18.6523V15.2589C14.3575 15.2589 17.6651 14.9678 17.6651 16.9557C17.665 18.8732 14.3575 18.6523 13.2773 18.6523Z" fill="#FFC163"/>
</svg>
