<svg width="26" height="27" viewBox="0 0 26 27" fill="none" xmlns="http://www.w3.org/2000/svg">
<rect width="26" height="27" rx="8" fill="#4690EF" fill-opacity="0.2"/>
<path d="M19.5 9.28125V7.59375C19.5 6.66309 18.7712 5.90625 17.875 5.90625H7.3125C5.96862 5.90625 4.875 7.04194 4.875 8.4375V18.5625C4.875 20.4196 6.33263 21.0938 7.3125 21.0938H19.5C20.3962 21.0938 21.125 20.3369 21.125 19.4062V10.9688C21.125 10.0381 20.3962 9.28125 19.5 9.28125ZM17.875 16.875H16.25V13.5H17.875V16.875ZM7.3125 9.28125C7.1033 9.27153 6.90577 9.17839 6.76104 9.02122C6.61631 8.86405 6.53553 8.65497 6.53553 8.4375C6.53553 8.22003 6.61631 8.01095 6.76104 7.85378C6.90577 7.69661 7.1033 7.60347 7.3125 7.59375H17.875V9.28125H7.3125Z" fill="#4D91FF"/>
</svg>
