<svg width="31" height="150" viewBox="0 0 31 150" fill="none" xmlns="http://www.w3.org/2000/svg">
<rect x="0.355469" y="0.102539" width="30.2294" height="149.257" rx="8" fill="#623AFF" fill-opacity="0.3"/>
<path d="M23.3468 101.269C22.9439 96.5558 22.3591 92.2749 21.6251 88.6645C20.8933 85.0437 20.0264 82.1569 19.0723 80.1634C19.0638 80.1423 19.0552 80.1317 19.0467 80.1106C20.3775 75.3643 21.2427 67.6331 21.2427 58.9104C21.2427 44.4605 18.8715 32.7529 15.945 32.7529C13.0184 32.7529 10.6472 44.4605 10.6472 58.9104C10.6472 67.6331 11.5124 75.3643 12.8432 80.1212C12.8347 80.1423 12.8261 80.1528 12.8176 80.1739C11.8606 82.1674 11.0018 85.0257 10.2648 88.6751C9.5315 92.2883 8.94682 96.5684 8.54307 101.279C8.14643 105.891 7.93251 110.836 7.9129 115.845C7.91233 115.958 7.91632 116.07 7.92466 116.174C7.93299 116.279 7.94549 116.375 7.96141 116.455C7.97734 116.536 7.99637 116.6 8.01739 116.644C8.03841 116.688 8.06098 116.71 8.08379 116.71H9.3655C9.45949 116.71 9.53426 116.341 9.5364 115.887C9.57912 107.745 10.2413 100.119 11.412 94.339C12.6232 88.3587 14.2317 85.0679 15.945 85.0679C17.6582 85.0679 19.2667 88.3587 20.4779 94.339C21.6486 100.119 22.3108 107.745 22.3535 115.887C22.3557 116.351 22.4304 116.71 22.5244 116.71H23.8061C23.8289 116.71 23.8515 116.688 23.8725 116.644C23.8935 116.6 23.9126 116.536 23.9285 116.455C23.9444 116.375 23.9569 116.279 23.9653 116.174C23.9736 116.07 23.9776 115.958 23.977 115.845C23.9557 110.803 23.7442 105.899 23.3468 101.269V101.269ZM15.945 77.0519C14.9644 77.0519 14.0416 75.1639 13.3474 71.736C12.6531 68.3081 12.2707 63.7516 12.2707 58.9104C12.2707 54.0692 12.6531 49.5127 13.3474 46.0848C14.0416 42.6569 14.9644 40.7689 15.945 40.7689C16.9255 40.7689 17.8483 42.6569 18.5426 46.0848C19.2368 49.5127 19.6192 54.0692 19.6192 58.9104C19.6192 63.7516 19.2368 68.3081 18.5426 71.736C17.8483 75.1639 16.9255 77.0519 15.945 77.0519Z" fill="#0D0D0D"/>
</svg>
