<svg width="105" height="84" viewBox="0 0 105 84" fill="none" xmlns="http://www.w3.org/2000/svg">
<rect x="0.705078" y="0.290039" width="103.781" height="82.7243" rx="8" fill="#623AFF" fill-opacity="0.3"/>
<path d="M79.637 56.3599C78.2536 53.7479 76.246 51.3753 73.726 49.3742C71.2137 47.3674 68.2376 45.7674 64.9621 44.6625C64.9328 44.6508 64.9035 44.645 64.8741 44.6333C69.4431 42.0027 72.4133 37.7177 72.4133 32.8833C72.4133 24.8746 64.2728 18.3857 54.2255 18.3857C44.1783 18.3857 36.0378 24.8746 36.0378 32.8833C36.0378 37.7177 39.008 42.0027 43.5769 44.6391C43.5476 44.6508 43.5182 44.6567 43.4889 44.6684C40.2034 45.7732 37.2552 47.3574 34.725 49.3801C32.2074 51.3826 30.2001 53.7549 28.814 56.3658C27.4523 58.9219 26.7179 61.6623 26.6506 64.4388C26.6486 64.5012 26.6623 64.5633 26.691 64.6214C26.7196 64.6795 26.7625 64.7324 26.8171 64.7771C26.8718 64.8218 26.9372 64.8572 27.0093 64.8815C27.0815 64.9057 27.159 64.9182 27.2373 64.9182H31.6375C31.9602 64.9182 32.2169 64.7136 32.2242 64.4622C32.3709 59.9492 34.6444 55.7227 38.6633 52.5193C42.8215 49.2047 48.3438 47.3808 54.2255 47.3808C60.1072 47.3808 65.6295 49.2047 69.7878 52.5193C73.8067 55.7227 76.0801 59.9492 76.2268 64.4622C76.2341 64.7194 76.4908 64.9182 76.8135 64.9182H81.2138C81.2921 64.9182 81.3696 64.9057 81.4417 64.8815C81.5139 64.8572 81.5792 64.8218 81.6339 64.7771C81.6886 64.7324 81.7315 64.6795 81.7601 64.6214C81.7887 64.5633 81.8024 64.5012 81.8005 64.4388C81.7271 61.6445 81.0011 58.9262 79.637 56.3599V56.3599ZM54.2255 42.938C50.8593 42.938 47.6911 41.8916 45.3077 39.9917C42.9242 38.0919 41.6114 35.5665 41.6114 32.8833C41.6114 30.2001 42.9242 27.6747 45.3077 25.7748C47.6911 23.8749 50.8593 22.8285 54.2255 22.8285C57.5917 22.8285 60.7599 23.8749 63.1434 25.7748C65.5268 27.6747 66.8396 30.2001 66.8396 32.8833C66.8396 35.5665 65.5268 38.0919 63.1434 39.9917C60.7599 41.8916 57.5917 42.938 54.2255 42.938Z" fill="#0D0D0D"/>
</svg>
