<svg width="31" height="150" viewBox="0 0 31 150" fill="none" xmlns="http://www.w3.org/2000/svg">
<rect x="0.355469" y="0.102539" width="30.2294" height="149.257" rx="8" fill="#623AFF" fill-opacity="0.3"/>
<path d="M23.3471 101.269C22.9441 96.5558 22.3593 92.2749 21.6253 88.6645C20.8935 85.0437 20.0267 82.1569 19.0726 80.1634C19.064 80.1423 19.0555 80.1317 19.0469 80.1106C20.3778 75.3643 21.2429 67.6331 21.2429 58.9104C21.2429 44.4605 18.8718 32.7529 15.9452 32.7529C13.0186 32.7529 10.6475 44.4605 10.6475 58.9104C10.6475 67.6331 11.5126 75.3643 12.8435 80.1212C12.8349 80.1423 12.8264 80.1528 12.8178 80.1739C11.8608 82.1674 11.0021 85.0257 10.2651 88.6751C9.53175 92.2883 8.94706 96.5684 8.54331 101.279C8.14667 105.891 7.93275 110.836 7.91314 115.845C7.91257 115.958 7.91657 116.07 7.9249 116.174C7.93323 116.279 7.94573 116.375 7.96166 116.455C7.97758 116.536 7.99662 116.6 8.01763 116.644C8.03865 116.688 8.06123 116.71 8.08403 116.71H9.36575C9.45974 116.71 9.53451 116.341 9.53664 115.887C9.57937 107.745 10.2416 100.119 11.4122 94.339C12.6234 88.3587 14.232 85.0679 15.9452 85.0679C17.6584 85.0679 19.267 88.3587 20.4782 94.339C21.6488 100.119 22.311 107.745 22.3538 115.887C22.3559 116.351 22.4307 116.71 22.5247 116.71H23.8064C23.8292 116.71 23.8518 116.688 23.8728 116.644C23.8938 116.6 23.9128 116.536 23.9287 116.455C23.9447 116.375 23.9572 116.279 23.9655 116.174C23.9738 116.07 23.9778 115.958 23.9773 115.845C23.9559 110.803 23.7444 105.899 23.3471 101.269V101.269ZM15.9452 77.0519C14.9647 77.0519 14.0419 75.1639 13.3476 71.736C12.6533 68.3081 12.271 63.7516 12.271 58.9104C12.271 54.0692 12.6533 49.5127 13.3476 46.0848C14.0419 42.6569 14.9647 40.7689 15.9452 40.7689C16.9257 40.7689 17.8485 42.6569 18.5428 46.0848C19.2371 49.5127 19.6194 54.0692 19.6194 58.9104C19.6194 63.7516 19.2371 68.3081 18.5428 71.736C17.8485 75.1639 16.9257 77.0519 15.9452 77.0519Z" fill="#0D0D0D"/>
</svg>
