<svg width="105" height="84" viewBox="0 0 105 84" fill="none" xmlns="http://www.w3.org/2000/svg">
<rect x="0.70459" y="0.290039" width="103.781" height="82.7243" rx="8" fill="#623AFF" fill-opacity="0.3"/>
<path d="M79.6365 56.3599C78.2531 53.7479 76.2455 51.3753 73.7255 49.3742C71.2132 47.3674 68.2371 45.7674 64.9617 44.6625C64.9323 44.6508 64.903 44.645 64.8737 44.6333C69.4426 42.0027 72.4128 37.7177 72.4128 32.8833C72.4128 24.8746 64.2723 18.3857 54.225 18.3857C44.1778 18.3857 36.0373 24.8746 36.0373 32.8833C36.0373 37.7177 39.0075 42.0027 43.5764 44.6391C43.5471 44.6508 43.5177 44.6567 43.4884 44.6684C40.2029 45.7732 37.2547 47.3574 34.7246 49.3801C32.2069 51.3826 30.1997 53.7549 28.8135 56.3658C27.4518 58.9219 26.7174 61.6623 26.6501 64.4388C26.6481 64.5012 26.6619 64.5633 26.6905 64.6214C26.7191 64.6795 26.762 64.7324 26.8167 64.7771C26.8713 64.8218 26.9367 64.8572 27.0088 64.8815C27.081 64.9057 27.1585 64.9182 27.2368 64.9182H31.637C31.9597 64.9182 32.2164 64.7136 32.2237 64.4622C32.3704 59.9492 34.6439 55.7227 38.6628 52.5193C42.821 49.2047 48.3434 47.3808 54.225 47.3808C60.1067 47.3808 65.629 49.2047 69.7873 52.5193C73.8062 55.7227 76.0796 59.9492 76.2263 64.4622C76.2337 64.7194 76.4903 64.9182 76.813 64.9182H81.2133C81.2916 64.9182 81.3691 64.9057 81.4412 64.8815C81.5134 64.8572 81.5787 64.8218 81.6334 64.7771C81.6881 64.7324 81.731 64.6795 81.7596 64.6214C81.7882 64.5633 81.8019 64.5012 81.8 64.4388C81.7266 61.6445 81.0006 58.9262 79.6365 56.3599V56.3599ZM54.225 42.938C50.8588 42.938 47.6906 41.8916 45.3072 39.9917C42.9237 38.0919 41.611 35.5665 41.611 32.8833C41.611 30.2001 42.9237 27.6747 45.3072 25.7748C47.6906 23.8749 50.8588 22.8285 54.225 22.8285C57.5912 22.8285 60.7594 23.8749 63.1429 25.7748C65.5264 27.6747 66.8391 30.2001 66.8391 32.8833C66.8391 35.5665 65.5264 38.0919 63.1429 39.9917C60.7594 41.8916 57.5912 42.938 54.225 42.938Z" fill="#0D0D0D"/>
</svg>
