<svg width="96" height="73" viewBox="0 0 96 73" fill="none" xmlns="http://www.w3.org/2000/svg">
<rect x="0.128906" y="0.532715" width="95.8704" height="71.8318" rx="8" fill="#623AFF" fill-opacity="0.3"/>
<path d="M73.0443 49.2201C71.7663 46.952 69.9117 44.8918 67.5838 43.1542C65.263 41.4117 62.5138 40.0223 59.488 39.0629C59.4609 39.0528 59.4338 39.0477 59.4067 39.0376C63.6274 36.7533 66.3711 33.0326 66.3711 28.8347C66.3711 21.8805 58.8511 16.2461 49.5697 16.2461C40.2883 16.2461 32.7683 21.8805 32.7683 28.8347C32.7683 33.0326 35.5121 36.7533 39.7328 39.0426C39.7057 39.0528 39.6786 39.0579 39.6515 39.068C36.6164 40.0274 33.8929 41.403 31.5556 43.1593C29.2299 44.8982 27.3756 46.9581 26.0952 49.2252C24.8372 51.4447 24.1588 53.8243 24.0966 56.2352C24.0948 56.2894 24.1075 56.3433 24.1339 56.3938C24.1603 56.4442 24.2 56.4902 24.2505 56.529C24.301 56.5678 24.3613 56.5986 24.428 56.6196C24.4947 56.6407 24.5663 56.6515 24.6386 56.6515H28.7034C29.0015 56.6515 29.2387 56.4738 29.2454 56.2555C29.3809 52.3368 31.4811 48.6668 35.1937 45.8852C39.035 43.007 44.1364 41.4233 49.5697 41.4233C55.0031 41.4233 60.1045 43.007 63.9458 45.8852C67.6583 48.6668 69.7585 52.3368 69.894 56.2555C69.9008 56.4789 70.1379 56.6515 70.436 56.6515H74.5009C74.5732 56.6515 74.6448 56.6407 74.7114 56.6196C74.7781 56.5986 74.8385 56.5678 74.889 56.529C74.9395 56.4902 74.9791 56.4442 75.0055 56.3938C75.032 56.3433 75.0446 56.2894 75.0428 56.2352C74.9751 53.8089 74.3044 51.4485 73.0443 49.2201V49.2201ZM49.5697 37.5655C46.4601 37.5655 43.5334 36.6569 41.3316 35.0072C39.1298 33.3575 37.9171 31.1646 37.9171 28.8347C37.9171 26.5048 39.1298 24.3119 41.3316 22.6622C43.5334 21.0125 46.4601 20.1039 49.5697 20.1039C52.6793 20.1039 55.606 21.0125 57.8078 22.6622C60.0096 24.3119 61.2223 26.5048 61.2223 28.8347C61.2223 31.1646 60.0096 33.3575 57.8078 35.0072C55.606 36.6569 52.6793 37.5655 49.5697 37.5655Z" fill="#0D0D0D"/>
</svg>
