<svg width="20" height="20" viewBox="0 0 20 20" fill="none" xmlns="http://www.w3.org/2000/svg">
<path d="M7.91 3.06622L7.42188 3.12497C7.42188 3.12497 5.23187 3.36435 3.6325 4.64872H3.61375L3.59375 4.66747C3.235 4.99747 3.07875 5.4031 2.83188 5.99622C2.54086 6.70982 2.29312 7.44031 2.09 8.18372C1.62625 9.8606 1.25 11.8918 1.25 13.75V13.9062L1.32812 14.0625C1.90688 15.0781 2.93437 15.725 3.88687 16.1718C4.83875 16.6187 5.66187 16.8556 6.23063 16.875L6.60187 16.8943L6.79688 16.5625L7.48063 15.3512C8.20563 15.515 9.04063 15.625 10 15.625C10.9594 15.625 11.7944 15.515 12.5194 15.3512L13.2031 16.5625L13.3988 16.8943L13.7694 16.875C14.3381 16.8556 15.1613 16.6187 16.1131 16.1718C17.0656 15.725 18.0931 15.0781 18.6719 14.0625L18.75 13.9062V13.75C18.75 11.8918 18.3738 9.8606 17.91 8.18372C17.7069 7.44031 17.4591 6.70982 17.1681 5.99622C16.9213 5.40247 16.765 4.99747 16.4062 4.6681L16.3869 4.6481H16.3669C14.7688 3.36435 12.5781 3.12497 12.5781 3.12497L12.09 3.06622L11.9137 3.5156C11.9137 3.5156 11.7331 3.97185 11.6213 4.49247C11.0839 4.41834 10.5424 4.37909 10 4.37497C9.66562 4.37497 9.0875 4.39685 8.37875 4.49247C8.30483 4.16018 8.20686 3.83369 8.08563 3.5156L7.91 3.06622ZM7.05062 4.49247C7.0775 4.57997 7.10437 4.6556 7.12875 4.72685C6.32063 4.92685 5.45875 5.23185 4.66812 5.72247L5.33187 6.77747C6.95312 5.77122 9.28187 5.62497 10 5.62497C10.7175 5.62497 13.0469 5.77122 14.6681 6.77747L15.3319 5.72247C14.5413 5.23185 13.6794 4.92685 12.8713 4.72622C12.8956 4.6556 12.9225 4.57997 12.9494 4.49185C13.5325 4.60935 14.6462 4.8781 15.5662 5.6056C15.5612 5.6081 15.8006 5.96935 16.0156 6.48435C16.2356 7.01435 16.4794 7.71997 16.6994 8.5156C17.1219 10.0412 17.4538 11.8993 17.4806 13.535C17.0869 14.1356 16.3575 14.6775 15.5856 15.0393C15.1016 15.2681 14.5894 15.432 14.0625 15.5268L13.75 15C13.9356 14.9312 14.1187 14.8562 14.2775 14.785C15.2394 14.3625 15.7619 13.9062 15.7619 13.9062L14.9412 12.9687C14.9412 12.9687 14.59 13.2912 13.7694 13.6525C12.95 14.0137 11.6969 14.375 10 14.375C8.30312 14.375 7.05062 14.0137 6.23063 13.6525C5.41 13.2912 5.05875 12.9687 5.05875 12.9687L4.23813 13.9062C4.23813 13.9062 4.76063 14.3625 5.7225 14.785C5.88125 14.8562 6.06437 14.9318 6.25 15L5.9375 15.5275C5.4103 15.4323 4.89796 15.268 4.41375 15.0387C3.6425 14.6775 2.9125 14.1356 2.52 13.535C2.54625 11.8993 2.87813 10.0412 3.30125 8.5156C3.48822 7.82549 3.71634 7.14719 3.98438 6.48435C4.19937 5.96935 4.43875 5.6081 4.43375 5.6056C5.35375 4.8781 6.4675 4.60935 7.05062 4.49247ZM7.8125 8.74997C7.32937 8.74997 6.90188 9.0256 6.64062 9.37497C6.37937 9.72435 6.25 10.1537 6.25 10.625C6.25 11.0962 6.37937 11.5256 6.64062 11.875C6.90188 12.2243 7.32937 12.5 7.8125 12.5C8.29563 12.5 8.72312 12.2243 8.98438 11.875C9.24563 11.5256 9.375 11.0962 9.375 10.625C9.375 10.1537 9.24563 9.72435 8.98438 9.37497C8.72312 9.0256 8.29563 8.74997 7.8125 8.74997ZM12.1875 8.74997C11.7044 8.74997 11.2769 9.0256 11.0156 9.37497C10.7544 9.72435 10.625 10.1537 10.625 10.625C10.625 11.0962 10.7544 11.5256 11.0156 11.875C11.2769 12.2243 11.7044 12.5 12.1875 12.5C12.6706 12.5 13.0981 12.2243 13.3594 11.875C13.6206 11.5256 13.75 11.0962 13.75 10.625C13.75 10.1537 13.6206 9.72435 13.3594 9.37497C13.0981 9.0256 12.6706 8.74997 12.1875 8.74997ZM7.8125 9.99997C7.84688 9.99997 7.89062 10.0125 7.96875 10.1175C8.04688 10.2218 8.125 10.405 8.125 10.625C8.125 10.845 8.04688 11.0281 7.96875 11.1331C7.89062 11.2375 7.84688 11.25 7.8125 11.25C7.77812 11.25 7.73438 11.2375 7.65625 11.1325C7.55289 10.9836 7.4983 10.8062 7.5 10.625C7.5 10.405 7.57812 10.2218 7.65625 10.1168C7.73438 10.0125 7.77812 9.99997 7.8125 9.99997ZM12.1875 9.99997C12.2219 9.99997 12.2656 10.0125 12.3438 10.1175C12.4219 10.2218 12.5 10.405 12.5 10.625C12.5 10.845 12.4219 11.0281 12.3438 11.1331C12.2656 11.2375 12.2219 11.25 12.1875 11.25C12.1531 11.25 12.1094 11.2375 12.0312 11.1325C11.9279 10.9836 11.8733 10.8062 11.875 10.625C11.875 10.405 11.9531 10.2218 12.0312 10.1168C12.1094 10.0125 12.1531 9.99997 12.1875 9.99997Z" fill="#FED519"/>
</svg>
