<svg width="20" height="20" viewBox="0 0 20 20" fill="none" xmlns="http://www.w3.org/2000/svg">
<path d="M7.91 3.06628L7.42188 3.12503C7.42188 3.12503 5.23187 3.36441 3.6325 4.64878H3.61375L3.59375 4.66753C3.235 4.99753 3.07875 5.40316 2.83188 5.99628C2.54086 6.70989 2.29312 7.44038 2.09 8.18378C1.62625 9.86066 1.25 11.8919 1.25 13.75V13.9063L1.32812 14.0625C1.90688 15.0782 2.93437 15.725 3.88687 16.1719C4.83875 16.6188 5.66187 16.8557 6.23063 16.875L6.60187 16.8944L6.79688 16.5625L7.48063 15.3513C8.20563 15.515 9.04063 15.625 10 15.625C10.9594 15.625 11.7944 15.515 12.5194 15.3513L13.2031 16.5625L13.3988 16.8944L13.7694 16.875C14.3381 16.8557 15.1613 16.6188 16.1131 16.1719C17.0656 15.725 18.0931 15.0782 18.6719 14.0625L18.75 13.9063V13.75C18.75 11.8919 18.3738 9.86066 17.91 8.18378C17.7069 7.44038 17.4591 6.70989 17.1681 5.99628C16.9213 5.40253 16.765 4.99753 16.4062 4.66816L16.3869 4.64816H16.3669C14.7688 3.36441 12.5781 3.12503 12.5781 3.12503L12.09 3.06628L11.9137 3.51566C11.9137 3.51566 11.7331 3.97191 11.6213 4.49253C11.0839 4.4184 10.5424 4.37915 10 4.37503C9.66562 4.37503 9.0875 4.39691 8.37875 4.49253C8.30483 4.16024 8.20686 3.83376 8.08563 3.51566L7.91 3.06628ZM7.05062 4.49253C7.0775 4.58003 7.10437 4.65566 7.12875 4.72691C6.32063 4.92691 5.45875 5.23191 4.66812 5.72253L5.33187 6.77753C6.95312 5.77128 9.28187 5.62503 10 5.62503C10.7175 5.62503 13.0469 5.77128 14.6681 6.77753L15.3319 5.72253C14.5413 5.23191 13.6794 4.92691 12.8713 4.72628C12.8956 4.65566 12.9225 4.58003 12.9494 4.49191C13.5325 4.60941 14.6462 4.87816 15.5662 5.60566C15.5612 5.60816 15.8006 5.96941 16.0156 6.48441C16.2356 7.01441 16.4794 7.72003 16.6994 8.51566C17.1219 10.0413 17.4538 11.8994 17.4806 13.535C17.0869 14.1357 16.3575 14.6775 15.5856 15.0394C15.1016 15.2682 14.5894 15.4321 14.0625 15.5269L13.75 15C13.9356 14.9313 14.1187 14.8563 14.2775 14.785C15.2394 14.3625 15.7619 13.9063 15.7619 13.9063L14.9412 12.9688C14.9412 12.9688 14.59 13.2913 13.7694 13.6525C12.95 14.0138 11.6969 14.375 10 14.375C8.30312 14.375 7.05062 14.0138 6.23063 13.6525C5.41 13.2913 5.05875 12.9688 5.05875 12.9688L4.23813 13.9063C4.23813 13.9063 4.76063 14.3625 5.7225 14.785C5.88125 14.8563 6.06437 14.9319 6.25 15L5.9375 15.5275C5.4103 15.4323 4.89796 15.268 4.41375 15.0388C3.6425 14.6775 2.9125 14.1357 2.52 13.535C2.54625 11.8994 2.87813 10.0413 3.30125 8.51566C3.48822 7.82555 3.71634 7.14725 3.98438 6.48441C4.19937 5.96941 4.43875 5.60816 4.43375 5.60566C5.35375 4.87816 6.4675 4.60941 7.05062 4.49253ZM7.8125 8.75003C7.32937 8.75003 6.90188 9.02566 6.64062 9.37503C6.37937 9.72441 6.25 10.1538 6.25 10.625C6.25 11.0963 6.37937 11.5257 6.64062 11.875C6.90188 12.2244 7.32937 12.5 7.8125 12.5C8.29563 12.5 8.72312 12.2244 8.98438 11.875C9.24563 11.5257 9.375 11.0963 9.375 10.625C9.375 10.1538 9.24563 9.72441 8.98438 9.37503C8.72312 9.02566 8.29563 8.75003 7.8125 8.75003ZM12.1875 8.75003C11.7044 8.75003 11.2769 9.02566 11.0156 9.37503C10.7544 9.72441 10.625 10.1538 10.625 10.625C10.625 11.0963 10.7544 11.5257 11.0156 11.875C11.2769 12.2244 11.7044 12.5 12.1875 12.5C12.6706 12.5 13.0981 12.2244 13.3594 11.875C13.6206 11.5257 13.75 11.0963 13.75 10.625C13.75 10.1538 13.6206 9.72441 13.3594 9.37503C13.0981 9.02566 12.6706 8.75003 12.1875 8.75003ZM7.8125 10C7.84688 10 7.89062 10.0125 7.96875 10.1175C8.04688 10.2219 8.125 10.405 8.125 10.625C8.125 10.845 8.04688 11.0282 7.96875 11.1332C7.89062 11.2375 7.84688 11.25 7.8125 11.25C7.77812 11.25 7.73438 11.2375 7.65625 11.1325C7.55289 10.9836 7.4983 10.8063 7.5 10.625C7.5 10.405 7.57812 10.2219 7.65625 10.1169C7.73438 10.0125 7.77812 10 7.8125 10ZM12.1875 10C12.2219 10 12.2656 10.0125 12.3438 10.1175C12.4219 10.2219 12.5 10.405 12.5 10.625C12.5 10.845 12.4219 11.0282 12.3438 11.1332C12.2656 11.2375 12.2219 11.25 12.1875 11.25C12.1531 11.25 12.1094 11.2375 12.0312 11.1325C11.9279 10.9836 11.8733 10.8063 11.875 10.625C11.875 10.405 11.9531 10.2219 12.0312 10.1169C12.1094 10.0125 12.1531 10 12.1875 10Z" fill="#FED519"/>
</svg>
