<svg width="18" height="18" viewBox="0 0 18 18" fill="none" xmlns="http://www.w3.org/2000/svg">
<mask id="mask0_145_4935" style="mask-type:alpha" maskUnits="userSpaceOnUse" x="0" y="0" width="18" height="18">
<rect width="18" height="18" fill="#C4C4C4"/>
</mask>
<g mask="url(#mask0_145_4935)">
<path d="M9.0375 16.4355H9.027C7.08975 16.3995 1.5 11.349 1.5 6.5655C1.5 4.2675 3.39375 2.25 5.55225 2.25C7.26975 2.25 8.42475 3.435 9.03675 4.2975C9.64725 3.4365 10.8022 2.25 12.5205 2.25C14.6805 2.25 16.5735 4.2675 16.5735 6.56625C16.5735 11.3483 10.983 16.3987 9.04575 16.434H9.0375V16.4355ZM5.553 3.37575C3.993 3.37575 2.62575 4.86675 2.62575 6.567C2.62575 10.872 7.90125 15.264 9.03825 15.3105C10.1768 15.264 15.4508 10.8727 15.4508 6.567C15.4508 4.86675 14.0835 3.37575 12.5235 3.37575C10.6275 3.37575 9.5685 5.57775 9.5595 5.5995C9.387 6.021 8.6925 6.021 8.51925 5.5995C8.50875 5.577 7.4505 3.37575 5.55375 3.37575H5.553Z" fill="#FED519"/>
</g>
</svg>
