<svg width="18" height="19" viewBox="0 0 18 19" fill="none" xmlns="http://www.w3.org/2000/svg">
<g clip-path="url(#clip0_145_4967)">
<mask id="mask0_145_4967" style="mask-type:alpha" maskUnits="userSpaceOnUse" x="0" y="0" width="18" height="19">
<rect y="0.5" width="18" height="18" fill="#C4C4C4"/>
</mask>
<g mask="url(#mask0_145_4967)">
<path d="M13.1475 5.91481L9.39751 2.16481C9.17776 1.94506 8.82151 1.94506 8.60251 2.16481L4.85251 5.91481C4.63201 6.13456 4.63201 6.49081 4.85251 6.70981C5.07301 6.92881 5.42776 6.93031 5.64751 6.70981L8.43751 3.91981V11.5623C8.43751 11.8728 8.68951 12.1248 9.00001 12.1248C9.31051 12.1248 9.56251 11.8728 9.56251 11.5623V3.91981L12.3525 6.70981C12.462 6.82006 12.606 6.87481 12.75 6.87481C12.894 6.87481 13.038 6.82081 13.1475 6.70981C13.3673 6.49006 13.3673 6.13456 13.1475 5.91481Z" fill="#FED519"/>
<path d="M14.781 16.7703H3.21901C2.27101 16.7703 1.5 15.9993 1.5 15.0513V10.8123C1.5 10.5018 1.752 10.2498 2.0625 10.2498C2.373 10.2498 2.625 10.5018 2.625 10.8123V15.0513C2.625 15.3791 2.89126 15.6453 3.21901 15.6453H14.781C15.1087 15.6453 15.375 15.3791 15.375 15.0513V10.8123C15.375 10.5018 15.627 10.2498 15.9375 10.2498C16.248 10.2498 16.5 10.5018 16.5 10.8123V15.0513C16.5 15.9993 15.729 16.7703 14.781 16.7703Z" fill="#FED519"/>
</g>
</g>
<defs>
<clipPath id="clip0_145_4967">
<rect width="18" height="18" fill="white" transform="translate(0 0.5)"/>
</clipPath>
</defs>
</svg>
