<svg width="24" height="24" viewBox="0 0 24 24" fill="none" xmlns="http://www.w3.org/2000/svg">
<path d="M6.99981 14.83C7.18717 15.0162 7.44062 15.1208 7.70481 15.1208C7.96899 15.1208 8.22244 15.0162 8.40981 14.83L11.9998 11.29L15.5398 14.83C15.7272 15.0162 15.9806 15.1208 16.2448 15.1208C16.509 15.1208 16.7624 15.0162 16.9498 14.83C17.0435 14.737 17.1179 14.6264 17.1687 14.5046C17.2195 14.3827 17.2456 14.252 17.2456 14.12C17.2456 13.988 17.2195 13.8573 17.1687 13.7354C17.1179 13.6136 17.0435 13.503 16.9498 13.41L12.7098 9.17C12.6168 9.07627 12.5062 9.00187 12.3844 8.9511C12.2625 8.90034 12.1318 8.8742 11.9998 8.8742C11.8678 8.8742 11.7371 8.90034 11.6152 8.9511C11.4934 9.00187 11.3828 9.07627 11.2898 9.17L6.99981 13.41C6.90608 13.503 6.83169 13.6136 6.78092 13.7354C6.73015 13.8573 6.70401 13.988 6.70401 14.12C6.70401 14.252 6.73015 14.3827 6.78092 14.5046C6.83169 14.6264 6.90608 14.737 6.99981 14.83Z" fill="#FED519"/>
</svg>
