<svg width="13" height="9" viewBox="0 0 13 9" fill="none" xmlns="http://www.w3.org/2000/svg">
<path d="M7.34339 8.58978L12.7204 1.99466C13.355 1.21869 12.8393 4.42369e-07 11.8762 4.42369e-07H1.12212C0.90658 -0.000197853 0.69556 0.0662735 0.514325 0.191455C0.33309 0.316636 0.189323 0.49522 0.100242 0.705822C0.0111599 0.916423 -0.0194626 1.15011 0.012044 1.37891C0.0435505 1.60771 0.13585 1.82191 0.277887 1.99586L5.65494 8.58858C5.76017 8.7178 5.88995 8.82137 6.03556 8.89233C6.18117 8.96329 6.33924 9 6.49916 9C6.65909 9 6.81716 8.96329 6.96277 8.89233C7.10838 8.82137 7.23816 8.7178 7.34339 8.58858V8.58978Z" fill="#9191A7"/>
</svg>
