<svg width="6" height="4" viewBox="0 0 6 4" fill="none" xmlns="http://www.w3.org/2000/svg">
<path d="M3.38926 3.81768L5.87097 0.886515C6.16385 0.54164 5.92582 1.96608e-07 5.48133 1.96608e-07H0.517899C0.418421 -8.79347e-05 0.321027 0.0294549 0.237381 0.085091C0.153734 0.140727 0.0873799 0.220098 0.0462651 0.313699C0.00515032 0.407299 -0.00898314 0.511162 0.00555849 0.612849C0.0201001 0.714536 0.0626993 0.809736 0.128255 0.88705L2.60997 3.81715C2.65854 3.87458 2.71844 3.92061 2.78564 3.95214C2.85285 3.98368 2.9258 4 2.99961 4C3.07342 4 3.14638 3.98368 3.21359 3.95214C3.28079 3.92061 3.34069 3.87458 3.38926 3.81715V3.81768Z" fill="#8D781F"/>
</svg>
