<svg width="5" height="2" viewBox="0 0 5 2" fill="none" xmlns="http://www.w3.org/2000/svg">
<path d="M3.21263 1.90884L4.86711 0.443257C5.06236 0.27082 4.90367 9.83042e-08 4.60734 9.83042e-08H1.29839C1.23207 -4.39673e-05 1.16714 0.0147274 1.11138 0.0425455C1.05561 0.0703635 1.01138 0.110049 0.983968 0.156849C0.956559 0.20365 0.947136 0.255581 0.956831 0.306424C0.966525 0.357268 0.994925 0.404868 1.03863 0.443525L2.69311 1.90857C2.72548 1.93729 2.76542 1.9603 2.81022 1.97607C2.85502 1.99184 2.90366 2 2.95287 2C3.00207 2 3.05071 1.99184 3.09552 1.97607C3.14032 1.9603 3.18025 1.93729 3.21263 1.90857V1.90884Z" fill="white"/>
</svg>
