<svg width="18" height="14" viewBox="0 0 18 14" fill="none" xmlns="http://www.w3.org/2000/svg">
<path d="M6.66 0.0662231L6.17188 0.124973C6.17188 0.124973 3.98187 0.364348 2.3825 1.64872H2.36375L2.34375 1.66747C1.985 1.99747 1.82875 2.4031 1.58188 2.99622C1.29086 3.70982 1.04312 4.44031 0.84 5.18372C0.37625 6.8606 0 8.89185 0 10.75V10.9062L0.078125 11.0625C0.656875 12.0781 1.68437 12.725 2.63687 13.1718C3.58875 13.6187 4.41187 13.8556 4.98063 13.875L5.35187 13.8943L5.54688 13.5625L6.23063 12.3512C6.95563 12.515 7.79063 12.625 8.75 12.625C9.70938 12.625 10.5444 12.515 11.2694 12.3512L11.9531 13.5625L12.1488 13.8943L12.5194 13.875C13.0881 13.8556 13.9113 13.6187 14.8631 13.1718C15.8156 12.725 16.8431 12.0781 17.4219 11.0625L17.5 10.9062V10.75C17.5 8.89185 17.1238 6.8606 16.66 5.18372C16.4569 4.44031 16.2091 3.70982 15.9181 2.99622C15.6713 2.40247 15.515 1.99747 15.1562 1.6681L15.1369 1.6481H15.1169C13.5188 0.364348 11.3281 0.124973 11.3281 0.124973L10.84 0.0662231L10.6637 0.515598C10.6637 0.515598 10.4831 0.971848 10.3713 1.49247C9.83394 1.41834 9.29239 1.37909 8.75 1.37497C8.41562 1.37497 7.8375 1.39685 7.12875 1.49247C7.05483 1.16018 6.95686 0.833694 6.83563 0.515598L6.66 0.0662231ZM5.80062 1.49247C5.8275 1.57997 5.85437 1.6556 5.87875 1.72685C5.07063 1.92685 4.20875 2.23185 3.41812 2.72247L4.08187 3.77747C5.70312 2.77122 8.03187 2.62497 8.75 2.62497C9.4675 2.62497 11.7969 2.77122 13.4181 3.77747L14.0819 2.72247C13.2913 2.23185 12.4294 1.92685 11.6213 1.72622C11.6456 1.6556 11.6725 1.57997 11.6994 1.49185C12.2825 1.60935 13.3962 1.8781 14.3162 2.6056C14.3112 2.6081 14.5506 2.96935 14.7656 3.48435C14.9856 4.01435 15.2294 4.71997 15.4494 5.5156C15.8719 7.04122 16.2038 8.89935 16.2306 10.535C15.8369 11.1356 15.1075 11.6775 14.3356 12.0393C13.8516 12.2681 13.3394 12.432 12.8125 12.5268L12.5 12C12.6856 11.9312 12.8687 11.8562 13.0275 11.785C13.9894 11.3625 14.5119 10.9062 14.5119 10.9062L13.6912 9.96872C13.6912 9.96872 13.34 10.2912 12.5194 10.6525C11.7 11.0137 10.4469 11.375 8.75 11.375C7.05312 11.375 5.80062 11.0137 4.98063 10.6525C4.16 10.2912 3.80875 9.96872 3.80875 9.96872L2.98813 10.9062C2.98813 10.9062 3.51063 11.3625 4.4725 11.785C4.63125 11.8562 4.81437 11.9318 5 12L4.6875 12.5275C4.1603 12.4323 3.64796 12.268 3.16375 12.0387C2.3925 11.6775 1.6625 11.1356 1.27 10.535C1.29625 8.89935 1.62813 7.04122 2.05125 5.5156C2.23822 4.82549 2.46634 4.14719 2.73438 3.48435C2.94937 2.96935 3.18875 2.6081 3.18375 2.6056C4.10375 1.8781 5.2175 1.60935 5.80062 1.49247ZM6.5625 5.74997C6.07937 5.74997 5.65188 6.0256 5.39062 6.37497C5.12937 6.72435 5 7.15372 5 7.62497C5 8.09622 5.12937 8.5256 5.39062 8.87497C5.65188 9.22435 6.07937 9.49997 6.5625 9.49997C7.04563 9.49997 7.47312 9.22435 7.73438 8.87497C7.99563 8.5256 8.125 8.09622 8.125 7.62497C8.125 7.15372 7.99563 6.72435 7.73438 6.37497C7.47312 6.0256 7.04563 5.74997 6.5625 5.74997ZM10.9375 5.74997C10.4544 5.74997 10.0269 6.0256 9.76562 6.37497C9.50438 6.72435 9.375 7.15372 9.375 7.62497C9.375 8.09622 9.50438 8.5256 9.76562 8.87497C10.0269 9.22435 10.4544 9.49997 10.9375 9.49997C11.4206 9.49997 11.8481 9.22435 12.1094 8.87497C12.3706 8.5256 12.5 8.09622 12.5 7.62497C12.5 7.15372 12.3706 6.72435 12.1094 6.37497C11.8481 6.0256 11.4206 5.74997 10.9375 5.74997ZM6.5625 6.99997C6.59688 6.99997 6.64062 7.01247 6.71875 7.11747C6.79688 7.22185 6.875 7.40497 6.875 7.62497C6.875 7.84497 6.79688 8.0281 6.71875 8.1331C6.64062 8.23747 6.59688 8.24997 6.5625 8.24997C6.52812 8.24997 6.48438 8.23747 6.40625 8.13247C6.30289 7.98356 6.2483 7.80623 6.25 7.62497C6.25 7.40497 6.32812 7.22185 6.40625 7.11685C6.48438 7.01247 6.52812 6.99997 6.5625 6.99997ZM10.9375 6.99997C10.9719 6.99997 11.0156 7.01247 11.0938 7.11747C11.1719 7.22185 11.25 7.40497 11.25 7.62497C11.25 7.84497 11.1719 8.0281 11.0938 8.1331C11.0156 8.23747 10.9719 8.24997 10.9375 8.24997C10.9031 8.24997 10.8594 8.23747 10.7812 8.13247C10.6779 7.98356 10.6233 7.80623 10.625 7.62497C10.625 7.40497 10.7031 7.22185 10.7812 7.11685C10.8594 7.01247 10.9031 6.99997 10.9375 6.99997Z" fill="#FED519"/>
</svg>
