<svg width="269" height="52" viewBox="0 0 269 52" fill="none" xmlns="http://www.w3.org/2000/svg">
<path d="M1 28.4459L3.61765 29.0392C6.23529 29.6326 11.4706 30.8192 16.7059 33.0851C21.9412 35.3509 27.1765 38.6958 32.4118 41.4273C37.6471 44.1588 42.8824 46.2769 48.1176 42.8018C53.3529 39.3267 58.5882 30.2585 63.8235 31.1485C69.0588 32.0386 74.2941 42.8871 79.5294 47.6589C84.7647 52.4307 90 51.126 95.2353 49.6189C100.471 48.1119 105.706 46.4025 110.941 41.7204C116.176 37.0382 121.412 29.3833 126.647 26.3144C131.882 23.2456 137.118 24.7628 142.353 22.0711C147.588 19.3794 152.824 12.4787 158.059 9.81683C163.294 7.15501 168.529 8.73209 173.765 12.6043C179 16.4766 184.235 22.644 189.471 22.4357C194.706 22.2274 199.941 15.6434 205.176 15.1357C210.412 14.6281 215.647 20.1968 220.882 25.522C226.118 30.8472 231.353 35.929 236.588 32.1767C241.824 28.4244 247.059 15.8379 252.294 9.16949C257.529 2.50103 262.765 1.75051 265.382 1.37526L268 1" stroke="#F0CA8C" stroke-width="2" stroke-linecap="round"/>
</svg>
