<svg width="168" height="58" viewBox="0 0 168 58" fill="none" xmlns="http://www.w3.org/2000/svg">
<path d="M1 49.4104L3.51515 49.2568C6.0303 49.1033 11.0606 48.7961 16.0909 49.8659C21.1212 50.9358 26.1515 53.3825 31.1818 55.1298C36.2121 56.877 41.2424 57.9247 46.2727 55.8659C51.303 53.807 56.3333 48.6416 61.3636 49.4377C66.3939 50.2338 71.4242 56.9913 76.4545 49.2878C81.4849 41.5843 86.5152 19.4197 91.5455 9.04693C96.5758 -1.3258 101.606 0.0933569 106.636 9.85389C111.667 19.6144 116.697 37.7163 121.727 37.7393C126.758 37.7623 131.788 19.7064 136.818 15.2313C141.848 10.7562 146.879 19.8619 151.909 19.7535C156.939 19.6451 161.97 10.3226 164.485 5.66128L167 1" stroke="#A294E1" stroke-width="2" stroke-linecap="round"/>
</svg>
