<svg width="175" height="52" viewBox="0 0 175 52" fill="none" xmlns="http://www.w3.org/2000/svg">
<path d="M1 28.4459L2.69608 29.0392C4.39216 29.6326 7.78431 30.8192 11.1765 33.0851C14.5686 35.3509 17.9608 38.6958 21.3529 41.4273C24.7451 44.1588 28.1373 46.2769 31.5294 42.8018C34.9216 39.3267 38.3137 30.2585 41.7059 31.1485C45.098 32.0386 48.4902 42.8871 51.8824 47.6589C55.2745 52.4307 58.6667 51.126 62.0588 49.6189C65.451 48.1119 68.8431 46.4025 72.2353 41.7204C75.6275 37.0382 79.0196 29.3833 82.4118 26.3144C85.8039 23.2456 89.1961 24.7628 92.5882 22.0711C95.9804 19.3794 99.3726 12.4787 102.765 9.81683C106.157 7.15501 109.549 8.73209 112.941 12.6043C116.333 16.4766 119.725 22.644 123.118 22.4357C126.51 22.2274 129.902 15.6434 133.294 15.1357C136.686 14.6281 140.078 20.1968 143.471 25.522C146.863 30.8472 150.255 35.929 153.647 32.1767C157.039 28.4244 160.431 15.8379 163.824 9.16949C167.216 2.50103 170.608 1.75051 172.304 1.37526L174 1" stroke="#F0CA8C" stroke-width="2" stroke-linecap="round"/>
</svg>
