<svg width="18" height="14" viewBox="0 0 18 14" fill="none" xmlns="http://www.w3.org/2000/svg">
<path d="M6.91 0.0661621L6.42188 0.124912C6.42188 0.124912 4.23187 0.364287 2.6325 1.64866H2.61375L2.59375 1.66741C2.235 1.99741 2.07875 2.40304 1.83188 2.99616C1.54086 3.70976 1.29312 4.44025 1.09 5.18366C0.62625 6.86054 0.25 8.89179 0.25 10.7499V10.9062L0.328125 11.0624C0.906875 12.078 1.93437 12.7249 2.88687 13.1718C3.83875 13.6187 4.66187 13.8555 5.23063 13.8749L5.60187 13.8943L5.79688 13.5624L6.48063 12.3512C7.20563 12.5149 8.04063 12.6249 9 12.6249C9.95938 12.6249 10.7944 12.5149 11.5194 12.3512L12.2031 13.5624L12.3988 13.8943L12.7694 13.8749C13.3381 13.8555 14.1613 13.6187 15.1131 13.1718C16.0656 12.7249 17.0931 12.078 17.6719 11.0624L17.75 10.9062V10.7499C17.75 8.89179 17.3738 6.86054 16.91 5.18366C16.7069 4.44025 16.4591 3.70976 16.1681 2.99616C15.9213 2.40241 15.765 1.99741 15.4062 1.66804L15.3869 1.64804H15.3669C13.7688 0.364287 11.5781 0.124912 11.5781 0.124912L11.09 0.0661621L10.9137 0.515537C10.9137 0.515537 10.7331 0.971787 10.6213 1.49241C10.0839 1.41828 9.54239 1.37903 9 1.37491C8.66562 1.37491 8.0875 1.39679 7.37875 1.49241C7.30483 1.16012 7.20686 0.833633 7.08563 0.515537L6.91 0.0661621ZM6.05062 1.49241C6.0775 1.57991 6.10437 1.65554 6.12875 1.72679C5.32063 1.92679 4.45875 2.23179 3.66812 2.72241L4.33187 3.77741C5.95312 2.77116 8.28187 2.62491 9 2.62491C9.7175 2.62491 12.0469 2.77116 13.6681 3.77741L14.3319 2.72241C13.5413 2.23179 12.6794 1.92679 11.8713 1.72616C11.8956 1.65554 11.9225 1.57991 11.9494 1.49179C12.5325 1.60929 13.6462 1.87804 14.5662 2.60554C14.5612 2.60804 14.8006 2.96929 15.0156 3.48429C15.2356 4.01429 15.4794 4.71991 15.6994 5.51554C16.1219 7.04116 16.4538 8.89929 16.4806 10.5349C16.0869 11.1355 15.3575 11.6774 14.5856 12.0393C14.1016 12.268 13.5894 12.4319 13.0625 12.5268L12.75 11.9999C12.9356 11.9312 13.1187 11.8562 13.2775 11.7849C14.2394 11.3624 14.7619 10.9062 14.7619 10.9062L13.9412 9.96866C13.9412 9.96866 13.59 10.2912 12.7694 10.6524C11.95 11.0137 10.6969 11.3749 9 11.3749C7.30312 11.3749 6.05062 11.0137 5.23063 10.6524C4.41 10.2912 4.05875 9.96866 4.05875 9.96866L3.23813 10.9062C3.23813 10.9062 3.76063 11.3624 4.7225 11.7849C4.88125 11.8562 5.06437 11.9318 5.25 11.9999L4.9375 12.5274C4.4103 12.4322 3.89796 12.2679 3.41375 12.0387C2.6425 11.6774 1.9125 11.1355 1.52 10.5349C1.54625 8.89929 1.87813 7.04116 2.30125 5.51554C2.48822 4.82543 2.71634 4.14713 2.98438 3.48429C3.19937 2.96929 3.43875 2.60804 3.43375 2.60554C4.35375 1.87804 5.4675 1.60929 6.05062 1.49241ZM6.8125 5.74991C6.32937 5.74991 5.90188 6.02554 5.64062 6.37491C5.37937 6.72429 5.25 7.15366 5.25 7.62491C5.25 8.09616 5.37937 8.52554 5.64062 8.87491C5.90188 9.22429 6.32937 9.49991 6.8125 9.49991C7.29563 9.49991 7.72312 9.22429 7.98438 8.87491C8.24563 8.52554 8.375 8.09616 8.375 7.62491C8.375 7.15366 8.24563 6.72429 7.98438 6.37491C7.72312 6.02554 7.29563 5.74991 6.8125 5.74991ZM11.1875 5.74991C10.7044 5.74991 10.2769 6.02554 10.0156 6.37491C9.75438 6.72429 9.625 7.15366 9.625 7.62491C9.625 8.09616 9.75438 8.52554 10.0156 8.87491C10.2769 9.22429 10.7044 9.49991 11.1875 9.49991C11.6706 9.49991 12.0981 9.22429 12.3594 8.87491C12.6206 8.52554 12.75 8.09616 12.75 7.62491C12.75 7.15366 12.6206 6.72429 12.3594 6.37491C12.0981 6.02554 11.6706 5.74991 11.1875 5.74991ZM6.8125 6.99991C6.84688 6.99991 6.89062 7.01241 6.96875 7.11741C7.04688 7.22179 7.125 7.40491 7.125 7.62491C7.125 7.84491 7.04688 8.02804 6.96875 8.13304C6.89062 8.23741 6.84688 8.24991 6.8125 8.24991C6.77812 8.24991 6.73438 8.23741 6.65625 8.13241C6.55289 7.9835 6.4983 7.80617 6.5 7.62491C6.5 7.40491 6.57812 7.22179 6.65625 7.11679C6.73438 7.01241 6.77812 6.99991 6.8125 6.99991ZM11.1875 6.99991C11.2219 6.99991 11.2656 7.01241 11.3438 7.11741C11.4219 7.22179 11.5 7.40491 11.5 7.62491C11.5 7.84491 11.4219 8.02804 11.3438 8.13304C11.2656 8.23741 11.2219 8.24991 11.1875 8.24991C11.1531 8.24991 11.1094 8.23741 11.0312 8.13241C10.9279 7.9835 10.8733 7.80617 10.875 7.62491C10.875 7.40491 10.9531 7.22179 11.0312 7.11679C11.1094 7.01241 11.1531 6.99991 11.1875 6.99991Z" fill="#FED519"/>
</svg>
